<?xml version="1.0" encoding="UTF-8"?>
<svg width="18px" height="18px" viewBox="0 0 14 14" version="1.1" xmlns="http://www.w3.org/2000/svg" xmlns:xlink="http://www.w3.org/1999/xlink">
    <title>step-5-root</title>
    <g id="readme-diagram" stroke="none" stroke-width="1" fill="none" fill-rule="evenodd">
        <g transform="translate(-76.000000, -88.000000)" id="events">
            <g transform="translate(10.000000, 12.932188)">
                <g id="event-5" transform="translate(66.000000, 54.067812)">
                    <g id="step-5-root" transform="translate(0.000000, 21.000000)">
                        <circle id="backdrop" fill="#3C7CFF" cx="7" cy="7" r="7"></circle>
                        <g id="index" transform="translate(4.514648, 3.954102)" fill="#FFFFFF" fill-rule="nonzero">
                            <path d="M2.56347656,7.20214844 C4.16992188,7.20214844 5.28808594,6.18652344 5.28808594,4.68261719 C5.28808594,3.33984375 4.33105469,2.39257812 2.98339844,2.39257812 C2.265625,2.39257812 1.68945312,2.67578125 1.40136719,3.12988281 L1.37207031,3.12988281 L1.53808594,1.171875 L4.32128906,1.171875 C4.69238281,1.171875 4.92675781,0.942382812 4.92675781,0.5859375 C4.92675781,0.229492187 4.6875,0 4.32128906,0 L1.23046875,0 C0.659179688,0 0.3515625,0.239257812 0.302734375,0.834960938 L0.09765625,3.41796875 C0.0927734375,3.44238281 0.0927734375,3.45703125 0.0927734375,3.4765625 C0.0732421875,3.87207031 0.302734375,4.20898438 0.786132812,4.20898438 C1.11328125,4.20898438 1.25976562,4.13574219 1.54785156,3.8671875 C1.796875,3.62792969 2.1484375,3.44726562 2.56835938,3.44726562 C3.33496094,3.44726562 3.88183594,3.97460937 3.88183594,4.71679688 C3.88183594,5.47851562 3.33007812,6.03027344 2.56347656,6.03027344 C1.92871094,6.03027344 1.51367188,5.72265625 1.25976562,5.21484375 C1.09375,4.95117188 0.908203125,4.84863281 0.615234375,4.84863281 C0.234375,4.84863281 0,5.07324219 0,5.44921875 C0,5.625 0.0439453125,5.77636719 0.1171875,5.93261719 C0.46875,6.6796875 1.4453125,7.20214844 2.56347656,7.20214844 Z" id="Path"></path>
                        </g>
                    </g>
                </g>
            </g>
        </g>
    </g>
</svg>