<?xml version="1.0" encoding="UTF-8"?>
<svg width="16px" height="16px" viewBox="0 0 14 14" version="1.1" xmlns="http://www.w3.org/2000/svg" xmlns:xlink="http://www.w3.org/1999/xlink">
    <title>step-4</title>
    <g id="readme-diagram" stroke="none" stroke-width="1" fill="none" fill-rule="evenodd">
        <g transform="translate(-86.000000, -18.000000)" id="events">
            <g transform="translate(10.000000, 12.932188)">
                <g id="event-4" transform="translate(76.000000, 0.000000)">
                    <g id="step-4" transform="translate(0.000000, 5.067812)">
                        <circle id="backdrop" fill="#50A44F" cx="7" cy="7" r="7"></circle>
                        <g id="index" transform="translate(4.104492, 3.846680)" fill="#FFFFFF" fill-rule="nonzero">
                            <path d="M4.21386719,7.25585938 C4.61914062,7.25585938 4.91699219,7.00683594 4.91699219,6.53808594 L4.91699219,5.859375 L5.31738281,5.859375 C5.703125,5.859375 5.92285156,5.62011719 5.92285156,5.2734375 C5.92285156,4.92675781 5.70800781,4.68261719 5.31738281,4.68261719 L4.91699219,4.68261719 L4.91699219,1.06445312 C4.91699219,0.405273438 4.44824219,0 3.70117187,0 C3.10546875,0 2.74902344,0.244140625 2.26074219,0.991210937 C1.49414062,2.12890625 0.791015625,3.203125 0.307617188,4.07226562 C0.087890625,4.45800781 0,4.73144531 0,5.03417969 C0,5.52734375 0.356445312,5.859375 0.888671875,5.859375 L3.515625,5.859375 L3.515625,6.53808594 C3.515625,7.00683594 3.80859375,7.25585938 4.21386719,7.25585938 Z M3.54492188,4.72167969 L1.2890625,4.72167969 L1.2890625,4.68261719 C1.86035156,3.61816406 2.50976562,2.62695312 3.515625,1.17675781 L3.54492188,1.17675781 L3.54492188,4.72167969 Z" id="Shape"></path>
                        </g>
                    </g>
                </g>
            </g>
        </g>
    </g>
</svg>