<?xml version="1.0" encoding="UTF-8"?>
<svg width="16px" height="16px" viewBox="0 0 14 14" version="1.1" xmlns="http://www.w3.org/2000/svg" xmlns:xlink="http://www.w3.org/1999/xlink">
    <title>step-6-ob2</title>
    <g id="readme-diagram" stroke="none" stroke-width="1" fill="none" fill-rule="evenodd">
        <g transform="translate(-223.000000, -136.000000)" id="events">
            <g transform="translate(10.000000, 12.932188)">
                <g id="event-6" transform="translate(206.000000, 111.067812)">
                    <g id="step-6-ob2" transform="translate(7.000000, 12.000000)">
                        <circle id="backdrop" fill="#50A44F" cx="7" cy="7" r="7"></circle>
                        <g id="index" transform="translate(4.185059, 3.792969)" fill="#FFFFFF" fill-rule="nonzero">
                            <path d="M2.93945312,7.36328125 C4.51171875,7.36328125 5.65429688,6.32324219 5.65429688,4.86328125 C5.65429688,3.54003906 4.72167969,2.56835938 3.359375,2.56835938 C2.40722656,2.56835938 1.71386719,3.046875 1.44042969,3.70117188 L1.41113281,3.70117188 L1.41113281,3.62792969 C1.42089844,2.12402344 1.93359375,1.16699219 2.93945312,1.16699219 C3.42285156,1.16699219 3.76464844,1.34765625 4.08691406,1.75292969 C4.30175781,2.00195312 4.47753906,2.12890625 4.77050781,2.12890625 C5.15625,2.12890625 5.38574219,1.875 5.38574219,1.54785156 C5.38574219,1.41601562 5.3515625,1.2890625 5.28320312,1.15234375 C4.95117188,0.493164063 4.11132812,0 2.94433594,0 C1.11328125,0 0,1.40625 0,3.74023438 C0,4.56054688 0.146484375,5.25878906 0.415039063,5.80566406 C0.932617188,6.84082031 1.82128906,7.36328125 2.93945312,7.36328125 Z M2.91992188,6.19140625 C2.19726562,6.19140625 1.63085938,5.625 1.63085938,4.89746094 C1.63085938,4.1796875 2.1875,3.65722656 2.93457031,3.65722656 C3.67675781,3.65722656 4.21875,4.18457031 4.21875,4.92675781 C4.21386719,5.63476562 3.64257812,6.19140625 2.91992188,6.19140625 Z" id="Shape"></path>
                        </g>
                    </g>
                </g>
            </g>
        </g>
    </g>
</svg>