<?xml version="1.0" encoding="UTF-8"?>
<svg width="18px" height="18px" viewBox="0 0 14 14" version="1.1" xmlns="http://www.w3.org/2000/svg" xmlns:xlink="http://www.w3.org/1999/xlink">
    <title>step-2</title>
    <g id="readme-diagram" stroke="none" stroke-width="1" fill="none" fill-rule="evenodd">
        <g transform="translate(-159.000000, -68.000000)" id="events">
            <g transform="translate(10.000000, 12.932188)">
                <g id="event-2" transform="translate(140.000000, 48.067812)">
                    <g id="step-2" transform="translate(9.000000, 7.000000)">
                        <circle id="backdrop" fill="#E56C1B" cx="7" cy="7" r="7"></circle>
                        <g id="index" transform="translate(4.473145, 3.797852)" fill="#FFFFFF" fill-rule="nonzero">
                            <path d="M0.693359375,7.20214844 L4.59472656,7.20214844 C4.97558594,7.20214844 5.20507812,6.96289062 5.20507812,6.61621094 C5.20507812,6.25976562 4.97558594,6.03027344 4.59472656,6.03027344 L1.93847656,6.03027344 L1.93847656,6.00097656 L3.46191406,4.53613281 C4.61425781,3.44726562 5.03417969,2.91015625 5.03417969,2.05078125 C5.03417969,0.83984375 4.02832031,0 2.53417969,0 C1.20117188,0 0.317382812,0.727539062 0.078125,1.50878906 C0.0439453125,1.61132812 0.0244140625,1.71386719 0.0244140625,1.82617188 C0.0244140625,2.19238281 0.258789062,2.42675781 0.654296875,2.42675781 C0.971679688,2.42675781 1.14257812,2.29003906 1.30859375,1.99707031 C1.5625,1.43066406 1.953125,1.14746094 2.51953125,1.14746094 C3.14941406,1.14746094 3.59863281,1.5625 3.59863281,2.14355469 C3.59863281,2.65136719 3.37402344,2.99316406 2.50488281,3.828125 L0.405273438,5.83496094 C0.107421875,6.10839844 0,6.29394531 0,6.57226562 C0,6.94335938 0.229492188,7.20214844 0.693359375,7.20214844 Z" id="Path"></path>
                        </g>
                    </g>
                </g>
            </g>
        </g>
    </g>
</svg>