<?xml version="1.0" encoding="UTF-8"?>
<svg width="16px" height="16px" viewBox="0 0 14 14" version="1.1" xmlns="http://www.w3.org/2000/svg" xmlns:xlink="http://www.w3.org/1999/xlink">
    <title>step-3</title>
    <g id="readme-diagram" stroke="none" stroke-width="1" fill="none" fill-rule="evenodd">
        <g transform="translate(-131.000000, -25.000000)" id="events">
            <g transform="translate(10.000000, 12.932188)">
                <g id="event-3" transform="translate(114.922235, 0.000000)">
                    <g id="step-3" transform="translate(6.077765, 12.067812)">
                        <circle id="backdrop" fill="#E56C1B" cx="7" cy="7" r="7"></circle>
                        <g id="index" transform="translate(4.353516, 3.797852)" fill="#FFFFFF" fill-rule="nonzero">
                            <path d="M2.61230469,7.35839844 C4.24804688,7.35839844 5.35644531,6.50878906 5.35644531,5.22949219 C5.35644531,4.2578125 4.67773438,3.64257812 3.62792969,3.54492188 L3.62792969,3.515625 C4.45800781,3.34472656 5.09765625,2.75878906 5.09765625,1.86523437 C5.09765625,0.737304688 4.09179688,0 2.60253906,0 C1.35742187,0 0.556640625,0.576171875 0.244140625,1.26464844 C0.170898438,1.43066406 0.13671875,1.57226562 0.13671875,1.73828125 C0.13671875,2.09472656 0.346679688,2.33398438 0.756835938,2.33398438 C1.08886719,2.33398438 1.25976562,2.21191406 1.42089844,1.87988281 C1.65039062,1.38183594 2.01171875,1.1328125 2.60742188,1.1328125 C3.3203125,1.1328125 3.70117188,1.50878906 3.70117188,2.07519531 C3.70117188,2.65136719 3.22265625,3.05175781 2.48535156,3.05175781 L2.19726562,3.05175781 C1.84082031,3.05175781 1.63574219,3.26660156 1.63574219,3.57421875 C1.63574219,3.89160156 1.84082031,4.1015625 2.19726562,4.1015625 L2.50488281,4.1015625 C3.359375,4.1015625 3.86230469,4.48242188 3.85742188,5.16601562 C3.85742188,5.75195312 3.359375,6.171875 2.63671875,6.171875 C1.90429688,6.171875 1.5234375,5.87890625 1.27441406,5.38574219 C1.12792969,5.1171875 0.942382812,5 0.649414062,5 C0.244140625,5 0,5.23925781 0,5.62011719 C0,5.76660156 0.0341796875,5.92285156 0.112304688,6.08398438 C0.444335938,6.77734375 1.26953125,7.35839844 2.61230469,7.35839844 Z" id="Path"></path>
                        </g>
                    </g>
                </g>
            </g>
        </g>
    </g>
</svg>