<svg id="readme-diagram" xmlns="http://www.w3.org/2000/svg" xmlns:xlink="http://www.w3.org/1999/xlink" viewBox="0 0 321 224" shape-rendering="geometricPrecision" text-rendering="geometricPrecision">
<style><![CDATA[
#readme-diagram-u-event-6 {animation: readme-diagram-u-event-6_c_o 10000ms linear infinite normal forwards}@keyframes readme-diagram-u-event-6_c_o { 0% {opacity: 0} 61% {opacity: 0} 64% {opacity: 1} 74% {opacity: 1} 81% {opacity: 0} 100% {opacity: 0}} #readme-diagram-u-event-7 {animation: readme-diagram-u-event-7_c_o 10000ms linear infinite normal forwards}@keyframes readme-diagram-u-event-7_c_o { 0% {opacity: 0} 70% {opacity: 0} 73% {opacity: 1} 85% {opacity: 1} 95% {opacity: 0} 100% {opacity: 0}} #readme-diagram-u-event-62 {animation: readme-diagram-u-event-62_c_o 10000ms linear infinite normal forwards}@keyframes readme-diagram-u-event-62_c_o { 0% {opacity: 0} 60% {opacity: 0} 63% {opacity: 1} 73% {opacity: 1} 80% {opacity: 0} 100% {opacity: 0}} #readme-diagram-u-event-63 {animation: readme-diagram-u-event-63_c_o 10000ms linear infinite normal forwards}@keyframes readme-diagram-u-event-63_c_o { 0% {opacity: 0} 60% {opacity: 0} 63% {opacity: 1} 73% {opacity: 1} 80% {opacity: 0} 100% {opacity: 0}} #readme-diagram-u-event-5 {animation: readme-diagram-u-event-5_c_o 10000ms linear infinite normal forwards}@keyframes readme-diagram-u-event-5_c_o { 0% {opacity: 0} 51% {opacity: 0} 54% {opacity: 1} 64% {opacity: 1} 71% {opacity: 0} 100% {opacity: 0}} #readme-diagram-u-event-52 {animation: readme-diagram-u-event-52_c_o 10000ms linear infinite normal forwards}@keyframes readme-diagram-u-event-52_c_o { 0% {opacity: 0} 51% {opacity: 0} 54% {opacity: 1} 64% {opacity: 1} 71% {opacity: 0} 100% {opacity: 0}} #readme-diagram-u-event-53 {animation: readme-diagram-u-event-53_c_o 10000ms linear infinite normal forwards}@keyframes readme-diagram-u-event-53_c_o { 0% {opacity: 0} 50% {opacity: 0} 53% {opacity: 1} 63% {opacity: 1} 70% {opacity: 0} 100% {opacity: 0}} #readme-diagram-u-event-4 {animation: readme-diagram-u-event-4_c_o 10000ms linear infinite normal forwards}@keyframes readme-diagram-u-event-4_c_o { 0% {opacity: 0} 43% {opacity: 0} 46% {opacity: 1} 59% {opacity: 1} 65% {opacity: 0} 100% {opacity: 0}} #readme-diagram-u-event-3 {animation: readme-diagram-u-event-3_c_o 10000ms linear infinite normal forwards}@keyframes readme-diagram-u-event-3_c_o { 0% {opacity: 0} 30% {opacity: 0} 33% {opacity: 1} 46% {opacity: 1} 53% {opacity: 0} 100% {opacity: 0}} #readme-diagram-u-event-2 {animation: readme-diagram-u-event-2_c_o 10000ms linear infinite normal forwards}@keyframes readme-diagram-u-event-2_c_o { 0% {opacity: 0} 20% {opacity: 0} 23% {opacity: 1} 33% {opacity: 1} 40% {opacity: 0} 100% {opacity: 0}} #readme-diagram-u-event-1 {animation: readme-diagram-u-event-1_c_o 10000ms linear infinite normal forwards}@keyframes readme-diagram-u-event-1_c_o { 0% {opacity: 0} 10% {opacity: 0} 13% {opacity: 1} 23% {opacity: 1} 30% {opacity: 0} 100% {opacity: 0}} #readme-diagram-u-event-0 {animation: readme-diagram-u-event-0_c_o 10000ms linear infinite normal forwards}@keyframes readme-diagram-u-event-0_c_o { 0% {opacity: 0} 3% {opacity: 1} 13% {opacity: 1} 20% {opacity: 0} 100% {opacity: 0}} #readme-diagram-u-echo {animation: readme-diagram-u-echo_c_o 10000ms linear infinite normal forwards}@keyframes readme-diagram-u-echo_c_o { 0% {opacity: 0} 37% {opacity: 0} 40% {opacity: 1} 53% {opacity: 1} 60% {opacity: 0} 100% {opacity: 0}}
]]></style>
<g id="readme-diagram-u-readme-diagram"><g id="readme-diagram-u-tree" transform="translate(0 37.15918)"><g id="readme-diagram-u-nodes"><g id="readme-diagram-u-root" transform="translate(83 0)"><rect id="readme-diagram-u-backdrop" width="67" height="23" rx="3" ry="3" transform="translate(0 6.84082)" fill="#424242" fill-rule="evenodd"/><g id="readme-diagram-u-path" transform="translate(29.984375 14.727539)"><path id="readme-diagram-u-shape" d="M0,1.484375c0-.122396.014974-.251302.044922-.386719s.074219-.26888.132812-.40039.129558-.257162.212891-.376953.179688-.226563.289063-.320313l.394531.28125c-.122396.184896-.214193.373698-.275391.566406s-.091797.401042-.091797.625v.582032h-.707031v-.570313Zm1.269531,0c0-.122396.014974-.251302.044922-.386719s.074219-.26888.132813-.40039.129557-.257162.21289-.376953.179688-.226563.289063-.320313l.394531.28125c-.122396.184896-.214193.373698-.275391.566406s-.091796.401042-.091796.625v.582032h-.707032v-.570313Z" fill="#fff"/><path id="readme-diagram-u-shape2" d="M5.765625,0.601563c0,.122395-.014974.251302-.044922.386718s-.074219.26888-.132812.400391-.129558.257161-.212891.376953-.179687.226563-.289062.320313l-.394532-.28125c.122396-.184896.214193-.373698.275391-.566407s.091797-.401041.091797-.625v-.585937h.707031v.574219Zm1.296875,0c0,.122395-.014974.251302-.044922.386718s-.074219.26888-.132812.400391-.129558.257161-.212891.376953-.179687.226563-.289062.320313l-.394532-.28125c.122396-.184896.214193-.373698.275391-.566407s.091797-.401041.091797-.625v-.585937h.707031v.574219Z" fill="#fff"/></g><g id="readme-diagram-u-label" transform="translate(.331055 0)"><path id="readme-diagram-s-path1" d="M0.254883,3.893555c.149414,0,.254883-.111328.254883-.272461v-1.672852c0-.389648.196289-.720703.65625-.720703.111328,0,.190429-.020508.243164-.064453.052734-.041016.079101-.099609.079101-.178711c0-.070312-.020508-.128906-.064453-.169922-.049805-.046875-.128906-.073242-.240234-.073242-.304688,0-.603516.234375-.691406.550781h-.011719v-.292969c0-.152343-.09961-.257812-.240235-.257812s-.240234.105469-.240234.257812v2.622071c0,.161133.105469.272461.254883.272461Z" fill="#fff"/><path id="readme-diagram-u-shape3" d="M2.964844,3.893555c.84082,0,1.409179-.606446,1.409179-1.576172c0-.972656-.568359-1.576172-1.409179-1.576172-.84375,0-1.41211.603516-1.41211,1.576172c0,.969726.56836,1.576172,1.41211,1.576172Zm0-.448242c-.539063,0-.893555-.410157-.893555-1.12793s.354492-1.12793.893555-1.12793.890625.410156.890625,1.12793-.351563,1.12793-.890625,1.12793Z" fill="#fff"/><path id="readme-diagram-u-shape4" d="M6.149414,3.893555c.84082,0,1.40918-.606446,1.40918-1.576172c0-.972656-.56836-1.576172-1.40918-1.576172-.84375,0-1.412109.603516-1.412109,1.576172c0,.969726.568359,1.576172,1.412109,1.576172Zm0-.448242c-.539062,0-.893555-.410157-.893555-1.12793s.354493-1.12793.893555-1.12793.890625.410156.890625,1.12793-.351562,1.12793-.890625,1.12793Z" fill="#fff"/><path id="readme-diagram-s-path2" d="M8.235352,3.137695c0,.486328.246093.726563.738281.726563h.032226c.28418,0,.372071-.082031.372071-.237305c0-.120117-.076172-.1875-.243164-.199219L9.09082,3.424805c-.254882-.017578-.345703-.140625-.345703-.398438v-1.813476h.392578c.146485,0,.228516-.076172.228516-.210938c0-.131836-.082031-.208008-.228516-.208008h-.392578v-.521484C8.745117,0.111328,8.639648,0,8.490234,0s-.254882.111328-.254882.272461v.521484h-.254883c-.146485,0-.228516.076172-.228516.208008c0,.134766.082031.210938.228516.210938h.254883v1.924804Z" fill="#fff"/></g></g><g id="readme-diagram-u-ob1" transform="translate(166 56.560547)"><rect id="readme-diagram-u-backdrop2" width="67" height="23" rx="3" ry="3" transform="translate(0 7.280273)" fill="#424242" fill-rule="evenodd"/><g id="readme-diagram-u-path2" transform="translate(13.279297 15.280273)"><path id="readme-diagram-u-shape5" d="M0.589844,0.425781L0.507813,1.871094h-.507813l.003906-1.382813v-.488281h.585938v.425781Zm1.394531,0L1.902344,1.871094h-.503906l.003906-1.382813v-.488281h.585937l-.003906.425781Z" fill="#fff"/><polygon id="readme-diagram-u-path3" points="5.050781,6.488281 4.402344,6.488281 6.777344,0.3125 7.421875,0.3125" fill="#fff"/><path id="readme-diagram-u-shape6" d="M12.464844,3.933594c0,.302083-.036459.583984-.109375.845703s-.179688.488932-.320313.681641-.314453.34375-.521484.453125-.443359.164062-.708984.164062c-.257813,0-.485026-.041667-.681641-.125s-.365234-.203125-.505859-.359375v2.03125h-.722657v-5.851562h.660157l.035156.460937c.140625-.174479.310547-.307943.509765-.400391s.430339-.138671.69336-.138671c.270833,0,.510416.053385.71875.160156s.382812.255208.523437.445312.247396.417318.320313.681641.109375.554036.109375.869141v.082031Zm-.722656-.082031c0-.20573-.022787-.401693-.06836-.587891s-.115885-.350261-.210937-.492188-.215495-.254557-.361328-.33789-.320313-.125-.523438-.125c-.231771,0-.426432.054036-.583984.162109s-.283203.246745-.376953.416016v2.035156c.09375.166667.21875.302734.375.408203s.354166.158203.59375.158203c.20052,0,.373697-.042317.519531-.126953s.265625-.198568.359375-.341797.163411-.308593.208984-.496093.06836-.384115.06836-.589844v-.082031Z" transform="translate(.000001 0)" fill="#fff"/><path id="readme-diagram-u-shape7" d="M15.566406,6.078125c-.296875,0-.569661-.050781-.818359-.152344s-.461589-.243489-.638672-.425781-.315104-.398437-.414062-.648437-.148438-.522136-.148438-.816407v-.164062c0-.341146.054688-.646485.164063-.916016s.254557-.497396.435546-.683594.386719-.328776.617188-.427734.466797-.148437.708984-.148437c.304688,0,.570964.052734.798828.158203s.417318.251302.56836.4375.263672.405599.33789.658203.111329.526041.111329.820312v.324219h-3.019532c.007813.192708.044922.373698.111328.542969s.157553.317057.273438.443359.254557.225912.416016.298828.339843.109375.535156.109375c.257812,0,.486979-.052083.6875-.15625s.367187-.242187.5-.414062l.441406.34375c-.070312.106771-.158203.208984-.263672.30664s-.227213.184245-.365234.259766-.294271.136068-.46875.181641-.364584.068359-.570313.068359Zm-.09375-3.789062c-.145833,0-.283854.026692-.414062.080078s-.247396.13151-.351563.234375-.192057.229166-.263672.378906-.121744.322266-.15039.517578h2.273437v-.054687c-.007812-.140625-.034505-.279948-.080078-.417969s-.11263-.261719-.201172-.371094-.19987-.197917-.333984-.265625-.29362-.101562-.478516-.101562Z" fill="#fff"/><path id="readme-diagram-u-shape8" d="M18.296875,3.847656c0-.304687.044271-.58789.132813-.849609s.215494-.488932.380859-.681641.366536-.344401.603516-.455078.503906-.166015.800781-.166015c.299479,0,.568359.055338.80664.166015s.440105.26237.605469.455078.292318.419922.38086.681641.132812.544922.132812.849609v.085938c0,.304687-.044271.587239-.132812.847656s-.215495.486979-.38086.679688-.366536.34375-.603515.453125-.503907.164062-.800782.164062c-.299479,0-.568359-.054687-.80664-.164062s-.440104-.260417-.605469-.453125-.292318-.419271-.380859-.679688-.132813-.542969-.132813-.847656v-.085938Zm.722656.085938c0,.208333.02474.406901.074219.595703s.124349.354818.224609.498047.225912.25651.376954.339844.326822.125.527343.125c.197917,0,.371745-.041667.521485-.125s.274739-.196615.375-.339844.17513-.309245.224609-.498047.074219-.38737.074219-.595703v-.085938c0-.205729-.025391-.402995-.076172-.591797s-.126302-.354817-.226563-.498046-.22526-.257162-.375-.341797-.324869-.126953-.52539-.126953-.375.042317-.523438.126953-.272786.198567-.373047.341797-.17513.309244-.224609.498046-.074219.386068-.074219.591797v.085938Z" fill="#fff"/><path id="readme-diagram-u-shape9" d="M26.867188,3.933594c0,.302083-.036459.583984-.109375.845703s-.179688.488932-.320313.681641-.314453.34375-.521484.453125-.44336.164062-.708985.164062c-.257812,0-.485026-.041667-.68164-.125s-.365235-.203125-.50586-.359375v2.03125h-.722656v-5.851562h.660156l.035157.460937c.140625-.174479.310546-.307943.509765-.400391s.430339-.138671.69336-.138671c.270833,0,.510416.053385.71875.160156s.382812.255208.523437.445312.247396.417318.320313.681641.109375.554036.109375.869141v.082031Zm-.722657-.082031c0-.20573-.022786-.401693-.068359-.587891s-.115885-.350261-.210938-.492188-.215494-.254557-.361328-.33789-.320312-.125-.523437-.125c-.231771,0-.426432.054036-.583985.162109s-.283203.246745-.376953.416016v2.035156c.09375.166667.21875.302734.375.408203s.354167.158203.59375.158203c.200521,0,.373698-.042317.519532-.126953s.265625-.198568.359375-.341797.163411-.308593.208984-.496093.068359-.384115.068359-.589844v-.082031Z" fill="#fff"/><polygon id="readme-diagram-u-path4" points="28.214844,0 30.375,0 30.375,5.375 31.753906,5.375 31.753906,6 28.214844,6 28.214844,5.375 29.652344,5.375 29.652344,0.628906 28.214844,0.628906" fill="#fff"/><path id="readme-diagram-u-shape10" d="M34.769531,6.078125c-.296875,0-.569661-.050781-.818359-.152344s-.461589-.243489-.638672-.425781-.315104-.398437-.414062-.648437-.148438-.522136-.148438-.816407v-.164062c0-.341146.054688-.646485.164063-.916016s.254557-.497396.435546-.683594.386719-.328776.617188-.427734.466797-.148437.708984-.148437c.304688,0,.570964.052734.798828.158203s.417318.251302.56836.4375.263672.405599.33789.658203.111329.526041.111329.820312v.324219h-3.019532c.007813.192708.044922.373698.111328.542969s.157553.317057.273438.443359.254557.225912.416016.298828.339843.109375.535156.109375c.257812,0,.486979-.052083.6875-.15625s.367187-.242187.5-.414062l.441406.34375c-.070312.106771-.158203.208984-.263672.30664s-.227213.184245-.365234.259766-.294271.136068-.46875.181641-.364584.068359-.570313.068359Zm-.09375-3.789062c-.145833,0-.283854.026692-.414062.080078s-.247396.13151-.351563.234375-.192057.229166-.263672.378906-.121744.322266-.15039.517578h2.273437v-.054687c-.007812-.140625-.034505-.279948-.080078-.417969s-.11263-.261719-.201172-.371094-.199869-.197917-.333984-.265625-.29362-.101562-.478516-.101562Z" fill="#fff"/><path id="readme-diagram-u-shape11" d="M38.996094,0.425781l-.082031,1.445313h-.507813l.003906-1.382813v-.488281h.585938v.425781Zm1.394531,0l-.082031,1.445313h-.503906l.003906-1.382813v-.488281h.585937l-.003906.425781Z" fill="#fff"/></g><g id="readme-diagram-u-label2" transform="translate(.181641 0)"><path id="readme-diagram-u-shape12" d="M1.412109,4.333008c.840821,0,1.40918-.606445,1.40918-1.576172c0-.972656-.568359-1.576172-1.40918-1.576172C0.568359,1.180664,0,1.78418,0,2.756836c0,.969727.568359,1.576172,1.412109,1.576172Zm0-.448242c-.539062,0-.893554-.410157-.893554-1.12793s.354492-1.12793.893554-1.12793.890625.410157.890625,1.12793-.351562,1.12793-.890625,1.12793Z" fill="#fff"/><path id="readme-diagram-u-shape13" d="M3.597656,4.333008c.146485,0,.249024-.102539.249024-.249024v-.319336h.011718c.199219.351563.547852.56836.993165.56836.779296,0,1.294921-.618164,1.294921-1.576172c0-.955078-.518554-1.576172-1.286132-1.576172-.430664,0-.785157.213867-.978516.5625h-.011719v-1.470703C3.870117,0.111328,3.764648,0,3.615234,0s-.254882.111328-.254882.272461v3.811523c0,.149414.09375.249024.237304.249024Zm1.154297-.448242c-.515625,0-.884765-.448243-.884765-1.12793c0-.676758.36914-1.12793.884765-1.12793.539063,0,.873047.436524.873047,1.12793c0,.697266-.333984,1.12793-.873047,1.12793Z" fill="#fff"/><path id="readme-diagram-s-path3" d="M7.716797,4.333008c.723633,0,1.212891-.366211,1.212891-.911133c0-.448242-.234375-.670898-.870118-.826172l-.454101-.111328c-.333985-.082031-.498047-.228516-.498047-.439453c0-.260742.254883-.445313.621094-.445313.310547,0,.506836.111329.638672.366211.055664.105469.125976.137696.225585.137696.123047,0,.199219-.079102.199219-.199219c0-.023438-.002929-.046875-.008789-.076172-.079101-.366211-.524414-.647461-1.02539-.647461-.688477,0-1.154297.360352-1.154297.890625c0,.427734.284179.706055.873047.852539l.46582.117188c.342773.084961.46875.202148.46875.421875c0,.284179-.263672.454101-.65332.454101s-.57129-.120117-.723633-.386719c-.058594-.105468-.131836-.152343-.222657-.152343-.131835,0-.231445.076172-.231445.210937c0,.038086.00586.076172.023438.120117.146484.38086.571289.624024,1.113281.624024Z" fill="#fff"/><path id="readme-diagram-u-shape14" d="M10.728516,4.333008c.55664,0,.984375-.234375,1.180664-.647461.023437-.055664.038086-.108399.038086-.149414c0-.134766-.090821-.222656-.225586-.222656-.079102,0-.137696.029296-.19043.102539-.237305.345703-.459961.474609-.823242.474609-.544922,0-.881836-.380859-.881836-.996094h1.904297c.175781,0,.28125-.111328.28125-.295898c0-.834961-.547852-1.417969-1.327149-1.417969-.84082,0-1.382812.626953-1.382812,1.587891c0,.984375.527344,1.564453,1.426758,1.564453ZM9.829102,2.496094c.032226-.524414.37207-.873047.846679-.873047.47168,0,.796875.345703.808594.873047h-1.655273Z" fill="#fff"/><path id="readme-diagram-s-path4" d="M12.779297,4.333008c.149414,0,.254883-.111328.254883-.272461v-1.672852c0-.389648.196289-.720703.65625-.720703.111328,0,.190429-.020508.243164-.064453.052734-.041016.079101-.099609.079101-.178711c0-.070312-.020507-.128906-.064453-.169922-.049804-.046875-.128906-.073242-.240234-.073242-.304688,0-.603516.234375-.691406.550781h-.011719v-.292968c0-.152344-.09961-.257813-.240235-.257813s-.240234.105469-.240234.257813v2.62207c0,.161133.105469.272461.254883.272461Z" fill="#fff"/><path id="readme-diagram-s-path5" d="M15.489258,4.333008c.164062,0,.272461-.082031.339844-.257813l.966796-2.52832c.017579-.043945.026368-.087891.026368-.131836c0-.140625-.09961-.234375-.251953-.234375-.111329,0-.1875.061524-.234375.193359l-.837891,2.364258h-.011719l-.834961-2.364258c-.046875-.131835-.123047-.193359-.237304-.193359-.152344,0-.254883.09375-.254883.234375c0,.043945.008789.087891.026367.131836l.969726,2.52832c.073243.184571.166993.257813.333985.257813Z" fill="#fff"/><path id="readme-diagram-u-shape15" d="M18.459961,4.333008c.556641,0,.984375-.234375,1.180664-.647461.023438-.055664.038086-.108399.038086-.149414c0-.134766-.09082-.222656-.225586-.222656-.079102,0-.137695.029296-.19043.102539-.237304.345703-.459961.474609-.823242.474609-.544922,0-.881836-.380859-.881836-.996094h1.904297c.175781,0,.28125-.111328.28125-.295898c0-.834961-.547851-1.417969-1.327148-1.417969-.840821,0-1.382813.626953-1.382813,1.587891c0,.984375.527344,1.564453,1.426758,1.564453Zm-.899414-1.836914c.032226-.524414.37207-.873047.84668-.873047.471679,0,.796875.345703.808593.873047h-1.655273Z" fill="#fff"/><path id="readme-diagram-s-path6" d="M20.510742,4.333008c.149414,0,.254883-.111328.254883-.272461v-1.672852c0-.389648.196289-.720703.65625-.720703.111328,0,.19043-.020508.243164-.064453.052734-.041016.079102-.099609.079102-.178711c0-.070312-.020508-.128906-.064453-.169922-.049805-.046875-.128907-.073242-.240235-.073242-.304687,0-.603515.234375-.691406.550781h-.011719v-.292968c0-.152344-.099609-.257813-.240234-.257813s-.240235.105469-.240235.257813v2.62207c0,.161133.105469.272461.254883.272461Z" fill="#fff"/><path id="readme-diagram-u-shape16" d="M23.689453,3.099609l-.196289.966797c-.005859.023438-.008789.052735-.008789.076172c0,.123047.079102.19043.196289.19043.120117,0,.19043-.064453.216797-.19043l.210937-1.042969h.981446l-.196289.966797c-.00586.023438-.008789.052735-.008789.076172c0,.123047.079101.19043.196289.19043.120117,0,.190429-.070313.216797-.199219l.210937-1.03418h.600586c.131836,0,.225586-.096679.225586-.234375c0-.108398-.073242-.1875-.178711-.1875h-.5625l.219727-1.066406h.571289c.131836,0,.225586-.09668.225586-.231445c0-.108399-.073243-.1875-.178711-.1875h-.530274l.19043-.925781c.005859-.023438.008789-.052735.008789-.076172c0-.123047-.079102-.19043-.196289-.19043-.120117,0-.19043.070313-.216797.199219l-.208008.993164h-.975586l.1875-.925781c.00586-.023438.008789-.052735.008789-.076172c0-.123047-.079101-.19043-.196289-.19043-.120117,0-.190429.070313-.216797.196289l-.208007.996094h-.580079c-.131835,0-.225585.09668-.225585.231445c0,.108399.073242.1875.17871.1875h.541993l-.213868,1.066406h-.550781c-.131836,0-.225586.09668-.225586.231446c0,.108398.073242.190429.178711.190429h.506836Zm.500977-.413086l.219726-1.081054h.987305l-.219727,1.081054h-.987304Z" fill="#fff"/><path id="readme-diagram-s-path7" d="M28.303711,4.333008c.149414,0,.254883-.111328.254883-.272461v-3.764649c0-.18457-.111328-.295898-.292969-.295898-.120117,0-.19043.029297-.354492.146484l-.905274.647461c-.111328.079102-.146484.140625-.146484.234375c0,.128907.084961.216797.208008.216797.064453,0,.120117-.020508.178711-.061523l.791015-.553711h.011719v3.430664c0,.161133.105469.272461.254883.272461Z" fill="#fff"/></g></g><g id="readme-diagram-u-ob3" transform="translate(0 56.542969)"><rect id="readme-diagram-u-backdrop3" width="67" height="23" rx="3" ry="3" transform="translate(0 7.297852)" fill="#424242" fill-rule="evenodd"/><g id="readme-diagram-u-path5" transform="translate(8.478516 15.297852)"><path id="readme-diagram-u-shape17" d="M0.589844,0.425781L0.507813,1.871094h-.507813l.003906-1.382813v-.488281h.585938v.425781Zm1.394531,0L1.902344,1.871094h-.503906l.003906-1.382813v-.488281h.585937l-.003906.425781Z" fill="#fff"/><polygon id="readme-diagram-u-path6" points="5.050781,6.488281 4.402344,6.488281 6.777344,0.3125 7.421875,0.3125" fill="#fff"/><path id="readme-diagram-u-shape18" d="M12.464844,3.933594c0,.302083-.036459.583984-.109375.845703s-.179688.488932-.320313.681641-.314453.34375-.521484.453125-.443359.164062-.708984.164062c-.257813,0-.485026-.041667-.681641-.125s-.365234-.203125-.505859-.359375v2.03125h-.722657v-5.851562h.660157l.035156.460937c.140625-.174479.310547-.307943.509765-.400391s.430339-.138671.69336-.138671c.270833,0,.510416.053385.71875.160156s.382812.255208.523437.445312.247396.417318.320313.681641.109375.554036.109375.869141v.082031Zm-.722656-.082031c0-.20573-.022787-.401693-.06836-.587891s-.115885-.350261-.210937-.492188-.215495-.254557-.361328-.33789-.320313-.125-.523438-.125c-.231771,0-.426432.054036-.583984.162109s-.283203.246745-.376953.416016v2.035156c.09375.166667.21875.302734.375.408203s.354166.158203.59375.158203c.20052,0,.373697-.042317.519531-.126953s.265625-.198568.359375-.341797.163411-.308593.208984-.496093.06836-.384115.06836-.589844v-.082031Z" transform="translate(.000001 0)" fill="#fff"/><path id="readme-diagram-u-shape19" d="M15.566406,6.078125c-.296875,0-.569661-.050781-.818359-.152344s-.461589-.243489-.638672-.425781-.315104-.398437-.414062-.648437-.148438-.522136-.148438-.816407v-.164062c0-.341146.054688-.646485.164063-.916016s.254557-.497396.435546-.683594.386719-.328776.617188-.427734.466797-.148437.708984-.148437c.304688,0,.570964.052734.798828.158203s.417318.251302.56836.4375.263672.405599.33789.658203.111329.526041.111329.820312v.324219h-3.019532c.007813.192708.044922.373698.111328.542969s.157553.317057.273438.443359.254557.225912.416016.298828.339843.109375.535156.109375c.257812,0,.486979-.052083.6875-.15625s.367187-.242187.5-.414062l.441406.34375c-.070312.106771-.158203.208984-.263672.30664s-.227213.184245-.365234.259766-.294271.136068-.46875.181641-.364584.068359-.570313.068359Zm-.09375-3.789062c-.145833,0-.283854.026692-.414062.080078s-.247396.13151-.351563.234375-.192057.229166-.263672.378906-.121744.322266-.15039.517578h2.273437v-.054687c-.007812-.140625-.034505-.279948-.080078-.417969s-.11263-.261719-.201172-.371094-.19987-.197917-.333984-.265625-.29362-.101562-.478516-.101562Z" fill="#fff"/><path id="readme-diagram-u-shape20" d="M18.296875,3.847656c0-.304687.044271-.58789.132813-.849609s.215494-.488932.380859-.681641.366536-.344401.603516-.455078.503906-.166015.800781-.166015c.299479,0,.568359.055338.80664.166015s.440105.26237.605469.455078.292318.419922.38086.681641.132812.544922.132812.849609v.085938c0,.304687-.044271.587239-.132812.847656s-.215495.486979-.38086.679688-.366536.34375-.603515.453125-.503907.164062-.800782.164062c-.299479,0-.568359-.054687-.80664-.164062s-.440104-.260417-.605469-.453125-.292318-.419271-.380859-.679688-.132813-.542969-.132813-.847656v-.085938Zm.722656.085938c0,.208333.02474.406901.074219.595703s.124349.354818.224609.498047.225912.25651.376954.339844.326822.125.527343.125c.197917,0,.371745-.041667.521485-.125s.274739-.196615.375-.339844.17513-.309245.224609-.498047.074219-.38737.074219-.595703v-.085938c0-.205729-.025391-.402995-.076172-.591797s-.126302-.354817-.226563-.498046-.22526-.257162-.375-.341797-.324869-.126953-.52539-.126953-.375.042317-.523438.126953-.272786.198567-.373047.341797-.17513.309244-.224609.498046-.074219.386068-.074219.591797v.085938Z" fill="#fff"/><path id="readme-diagram-u-shape21" d="M26.867188,3.933594c0,.302083-.036459.583984-.109375.845703s-.179688.488932-.320313.681641-.314453.34375-.521484.453125-.44336.164062-.708985.164062c-.257812,0-.485026-.041667-.68164-.125s-.365235-.203125-.50586-.359375v2.03125h-.722656v-5.851562h.660156l.035157.460937c.140625-.174479.310546-.307943.509765-.400391s.430339-.138671.69336-.138671c.270833,0,.510416.053385.71875.160156s.382812.255208.523437.445312.247396.417318.320313.681641.109375.554036.109375.869141v.082031Zm-.722657-.082031c0-.20573-.022786-.401693-.068359-.587891s-.115885-.350261-.210938-.492188-.215494-.254557-.361328-.33789-.320312-.125-.523437-.125c-.231771,0-.426432.054036-.583985.162109s-.283203.246745-.376953.416016v2.035156c.09375.166667.21875.302734.375.408203s.354167.158203.59375.158203c.200521,0,.373698-.042317.519532-.126953s.265625-.198568.359375-.341797.163411-.308593.208984-.496093.068359-.384115.068359-.589844v-.082031Z" fill="#fff"/><polygon id="readme-diagram-u-path7" points="28.214844,0 30.375,0 30.375,5.375 31.753906,5.375 31.753906,6 28.214844,6 28.214844,5.375 29.652344,5.375 29.652344,0.628906 28.214844,0.628906" fill="#fff"/><path id="readme-diagram-u-shape22" d="M34.769531,6.078125c-.296875,0-.569661-.050781-.818359-.152344s-.461589-.243489-.638672-.425781-.315104-.398437-.414062-.648437-.148438-.522136-.148438-.816407v-.164062c0-.341146.054688-.646485.164063-.916016s.254557-.497396.435546-.683594.386719-.328776.617188-.427734.466797-.148437.708984-.148437c.304688,0,.570964.052734.798828.158203s.417318.251302.56836.4375.263672.405599.33789.658203.111329.526041.111329.820312v.324219h-3.019532c.007813.192708.044922.373698.111328.542969s.157553.317057.273438.443359.254557.225912.416016.298828.339843.109375.535156.109375c.257812,0,.486979-.052083.6875-.15625s.367187-.242187.5-.414062l.441406.34375c-.070312.106771-.158203.208984-.263672.30664s-.227213.184245-.365234.259766-.294271.136068-.46875.181641-.364584.068359-.570313.068359Zm-.09375-3.789062c-.145833,0-.283854.026692-.414062.080078s-.247396.13151-.351563.234375-.192057.229166-.263672.378906-.121744.322266-.15039.517578h2.273437v-.054687c-.007812-.140625-.034505-.279948-.080078-.417969s-.11263-.261719-.201172-.371094-.199869-.197917-.333984-.265625-.29362-.101562-.478516-.101562Z" fill="#fff"/><polygon id="readme-diagram-u-path8" points="38.65625,6.488281 38.007813,6.488281 40.382813,0.3125 41.027344,0.3125" fill="#fff"/><path id="readme-diagram-u-shape23" d="M46.074219,3.824219c0,.361979-.041667.682942-.125.96289s-.203125.515625-.359375.707032-.347656.336588-.574219.435547-.485677.148437-.777344.148437c-.289062,0-.547526-.049479-.77539-.148437s-.421224-.244141-.580078-.435547-.280599-.427084-.365235-.707032-.126953-.600911-.126953-.96289v-1.332031c0-.36198.041667-.682943.125-.962891s.203776-.516276.361328-.708984.350261-.339193.578125-.439454.486328-.15039.775391-.15039c.291666,0,.551432.05013.779297.15039s.420573.246745.578125.439454.277994.429036.361328.708984.125.600911.125.962891v1.332031Zm-2.957031-.144531l2.214843-1.699219c-.041666-.377604-.151692-.664714-.330078-.861328s-.435547-.294922-.771484-.294922c-.380209,0-.660807.128255-.841797.384765s-.271484.63086-.271484,1.123047v1.347657Zm2.230468-1.007813L43.136719,4.363281c.044271.367188.157552.647136.339844.839844s.436197.289063.761718.289063c.382813,0,.663412-.130209.841797-.390625s.267578-.635417.267578-1.125v-1.304688Z" fill="#fff"/><path id="readme-diagram-u-shape24" d="M48.597656,0.425781l-.082031,1.445313h-.507812l.003906-1.382813v-.488281h.585937v.425781Zm1.394532,0l-.082032,1.445313h-.503906l.003906-1.382813v-.488281h.585938l-.003906.425781Z" fill="#fff"/></g><g id="readme-diagram-u-label3" transform="translate(.181641 0)"><path id="readme-diagram-u-shape25" d="M1.412109,4.350586c.840821,0,1.40918-.606445,1.40918-1.576172c0-.972656-.568359-1.576172-1.40918-1.576172C0.568359,1.198242,0,1.801758,0,2.774414c0,.969727.568359,1.576172,1.412109,1.576172Zm0-.448242c-.539062,0-.893554-.410156-.893554-1.12793s.354492-1.12793.893554-1.12793.890625.410157.890625,1.12793-.351562,1.12793-.890625,1.12793Z" fill="#fff"/><path id="readme-diagram-u-shape26" d="M3.597656,4.350586c.146485,0,.249024-.102539.249024-.249023v-.319336h.011718c.199219.351562.547852.568359.993165.568359.779296,0,1.294921-.618164,1.294921-1.576172c0-.955078-.518554-1.576172-1.286132-1.576172-.430664,0-.785157.213867-.978516.5625h-.011719v-1.470703c0-.161133-.105469-.272461-.254883-.272461s-.254882.111328-.254882.272461v3.811524c0,.149414.09375.249023.237304.249023Zm1.154297-.448242c-.515625,0-.884765-.448242-.884765-1.12793c0-.676758.36914-1.12793.884765-1.12793.539063,0,.873047.436524.873047,1.12793c0,.697266-.333984,1.12793-.873047,1.12793Z" fill="#fff"/><path id="readme-diagram-s-path8" d="M7.716797,4.350586c.723633,0,1.212891-.366211,1.212891-.911133c0-.448242-.234375-.670898-.870118-.826172l-.454101-.111328c-.333985-.082031-.498047-.228515-.498047-.439453c0-.260742.254883-.445312.621094-.445312.310547,0,.506836.111328.638672.36621.055664.105469.125976.137696.225585.137696.123047,0,.199219-.079102.199219-.199219c0-.023437-.002929-.046875-.008789-.076172-.079101-.366211-.524414-.647461-1.02539-.647461-.688477,0-1.154297.360352-1.154297.890625c0,.427735.284179.706055.873047.852539l.46582.117188c.342773.084961.46875.202148.46875.421875c0,.284179-.263672.454101-.65332.454101s-.57129-.120117-.723633-.386718c-.058594-.105469-.131836-.152344-.222657-.152344-.131835,0-.231445.076172-.231445.210937c0,.038086.00586.076172.023438.120118.146484.380859.571289.624023,1.113281.624023Z" fill="#fff"/><path id="readme-diagram-u-shape27" d="M10.728516,4.350586c.55664,0,.984375-.234375,1.180664-.647461.023437-.055664.038086-.108398.038086-.149414c0-.134766-.090821-.222656-.225586-.222656-.079102,0-.137696.029297-.19043.102539-.237305.345703-.459961.474609-.823242.474609-.544922,0-.881836-.380859-.881836-.996094h1.904297c.175781,0,.28125-.111328.28125-.295898c0-.834961-.547852-1.417969-1.327149-1.417969-.84082,0-1.382812.626953-1.382812,1.587891c0,.984375.527344,1.564453,1.426758,1.564453ZM9.829102,2.513672c.032226-.524414.37207-.873047.846679-.873047.47168,0,.796875.345703.808594.873047h-1.655273Z" fill="#fff"/><path id="readme-diagram-s-path9" d="M12.779297,4.350586c.149414,0,.254883-.111328.254883-.272461v-1.672852c0-.389648.196289-.720703.65625-.720703.111328,0,.190429-.020507.243164-.064453.052734-.041015.079101-.099609.079101-.178711c0-.070312-.020507-.128906-.064453-.169922-.049804-.046875-.128906-.073242-.240234-.073242-.304688,0-.603516.234375-.691406.550781h-.011719v-.292968c0-.152344-.09961-.257813-.240235-.257813s-.240234.105469-.240234.257813v2.62207c0,.161133.105469.272461.254883.272461Z" fill="#fff"/><path id="readme-diagram-s-path10" d="M15.489258,4.350586c.164062,0,.272461-.082031.339844-.257813l.966796-2.52832c.017579-.043945.026368-.08789.026368-.131836c0-.140625-.09961-.234375-.251953-.234375-.111329,0-.1875.061524-.234375.19336l-.837891,2.364257h-.011719l-.834961-2.364257c-.046875-.131836-.123047-.19336-.237304-.19336-.152344,0-.254883.09375-.254883.234375c0,.043946.008789.087891.026367.131836l.969726,2.52832c.073243.184571.166993.257813.333985.257813Z" fill="#fff"/><path id="readme-diagram-u-shape28" d="M18.459961,4.350586c.556641,0,.984375-.234375,1.180664-.647461.023438-.055664.038086-.108398.038086-.149414c0-.134766-.09082-.222656-.225586-.222656-.079102,0-.137695.029297-.19043.102539-.237304.345703-.459961.474609-.823242.474609-.544922,0-.881836-.380859-.881836-.996094h1.904297c.175781,0,.28125-.111328.28125-.295898c0-.834961-.547851-1.417969-1.327148-1.417969-.840821,0-1.382813.626953-1.382813,1.587891c0,.984375.527344,1.564453,1.426758,1.564453Zm-.899414-1.836914c.032226-.524414.37207-.873047.84668-.873047.471679,0,.796875.345703.808593.873047h-1.655273Z" fill="#fff"/><path id="readme-diagram-s-path11" d="M20.510742,4.350586c.149414,0,.254883-.111328.254883-.272461v-1.672852c0-.389648.196289-.720703.65625-.720703.111328,0,.19043-.020507.243164-.064453.052734-.041015.079102-.099609.079102-.178711c0-.070312-.020508-.128906-.064453-.169922-.049805-.046875-.128907-.073242-.240235-.073242-.304687,0-.603515.234375-.691406.550781h-.011719v-.292968c0-.152344-.099609-.257813-.240234-.257813s-.240235.105469-.240235.257813v2.62207c0,.161133.105469.272461.254883.272461Z" fill="#fff"/><path id="readme-diagram-u-shape29" d="M23.689453,3.117188l-.196289.966796c-.005859.023438-.008789.052735-.008789.076172c0,.123047.079102.19043.196289.19043.120117,0,.19043-.064453.216797-.19043l.210937-1.042968h.981446l-.196289.966796c-.00586.023438-.008789.052735-.008789.076172c0,.123047.079101.19043.196289.19043.120117,0,.190429-.070313.216797-.199219l.210937-1.034179h.600586c.131836,0,.225586-.09668.225586-.234375c0-.108399-.073242-.1875-.178711-.1875h-.5625l.219727-1.066407h.571289c.131836,0,.225586-.096679.225586-.231445c0-.108398-.073243-.1875-.178711-.1875h-.530274l.19043-.925781c.005859-.023438.008789-.052735.008789-.076172c0-.123047-.079102-.19043-.196289-.19043-.120117,0-.19043.070313-.216797.199219l-.208008.993164h-.975586l.1875-.925781c.00586-.023438.008789-.052735.008789-.076172c0-.123047-.079101-.19043-.196289-.19043-.120117,0-.190429.070313-.216797.196289l-.208007.996094h-.580079c-.131835,0-.225585.09668-.225585.231445c0,.108399.073242.1875.17871.1875h.541993l-.213868,1.066407h-.550781c-.131836,0-.225586.096679-.225586.231445c0,.108398.073242.19043.178711.19043h.506836Zm.500977-.413086l.219726-1.081055h.987305l-.219727,1.081055h-.987304Z" fill="#fff"/><path id="readme-diagram-s-path12" d="M28.397461,4.368164c.829102,0,1.467773-.506836,1.467773-1.233398c0-.600586-.418945-.984375-1.034179-1.03711v-.011718c.530273-.111329.896484-.47168.896484-.996094C29.727539,0.486328,29.238281,0,28.391602,0c-.585938,0-1.03418.243164-1.256836.665039-.061524.114258-.087891.219727-.087891.339844c0,.152344.084961.240234.234375.240234.131836,0,.18457-.055664.237305-.208008.152343-.383789.407226-.580078.873047-.580078.541992,0,.805664.28418.805664.703125c0,.421875-.351563.732422-.855469.732422h-.313477c-.140625,0-.237304.09082-.237304.222656s.096679.222657.237304.222657h.336914c.594727,0,.966797.292968.963868.814453-.00293.442383-.375.758789-.931641.758789-.509766,0-.811523-.213867-.952148-.577149-.055665-.143554-.123047-.208007-.243165-.208007-.152343,0-.243164.099609-.243164.246093c0,.114258.029297.219727.09668.336914.254883.433594.711914.65918,1.341797.65918Z" fill="#fff"/></g></g><g id="readme-diagram-u-ob2" transform="translate(166 121.542969)"><rect id="readme-diagram-u-backdrop4" width="67" height="23" rx="3" ry="3" transform="translate(0 7.297852)" fill="#424242" fill-rule="evenodd"/><g id="readme-diagram-u-path9" transform="translate(8.478516 10.297852)"><path id="readme-diagram-u-shape30" d="M0.589844,0.425781L0.507813,1.871094h-.507813l.003906-1.382813v-.488281h.585938v.425781Zm1.394531,0L1.902344,1.871094h-.503906l.003906-1.382813v-.488281h.585937l-.003906.425781Z" fill="#fff"/><polygon id="readme-diagram-u-path10" points="5.050781,6.488281 4.402344,6.488281 6.777344,0.3125 7.421875,0.3125" fill="#fff"/><path id="readme-diagram-u-shape31" d="M12.464844,3.933594c0,.302083-.036459.583984-.109375.845703s-.179688.488932-.320313.681641-.314453.34375-.521484.453125-.443359.164062-.708984.164062c-.257813,0-.485026-.041667-.681641-.125s-.365234-.203125-.505859-.359375v2.03125h-.722657v-5.851562h.660157l.035156.460937c.140625-.174479.310547-.307943.509765-.400391s.430339-.138671.69336-.138671c.270833,0,.510416.053385.71875.160156s.382812.255208.523437.445312.247396.417318.320313.681641.109375.554036.109375.869141v.082031Zm-.722656-.082031c0-.20573-.022787-.401693-.06836-.587891s-.115885-.350261-.210937-.492188-.215495-.254557-.361328-.33789-.320313-.125-.523438-.125c-.231771,0-.426432.054036-.583984.162109s-.283203.246745-.376953.416016v2.035156c.09375.166667.21875.302734.375.408203s.354166.158203.59375.158203c.20052,0,.373697-.042317.519531-.126953s.265625-.198568.359375-.341797.163411-.308593.208984-.496093.06836-.384115.06836-.589844v-.082031Z" transform="translate(.000001 0)" fill="#fff"/><path id="readme-diagram-u-shape32" d="M15.566406,6.078125c-.296875,0-.569661-.050781-.818359-.152344s-.461589-.243489-.638672-.425781-.315104-.398437-.414062-.648437-.148438-.522136-.148438-.816407v-.164062c0-.341146.054688-.646485.164063-.916016s.254557-.497396.435546-.683594.386719-.328776.617188-.427734.466797-.148437.708984-.148437c.304688,0,.570964.052734.798828.158203s.417318.251302.56836.4375.263672.405599.33789.658203.111329.526041.111329.820312v.324219h-3.019532c.007813.192708.044922.373698.111328.542969s.157553.317057.273438.443359.254557.225912.416016.298828.339843.109375.535156.109375c.257812,0,.486979-.052083.6875-.15625s.367187-.242187.5-.414062l.441406.34375c-.070312.106771-.158203.208984-.263672.30664s-.227213.184245-.365234.259766-.294271.136068-.46875.181641-.364584.068359-.570313.068359Zm-.09375-3.789062c-.145833,0-.283854.026692-.414062.080078s-.247396.13151-.351563.234375-.192057.229166-.263672.378906-.121744.322266-.15039.517578h2.273437v-.054687c-.007812-.140625-.034505-.279948-.080078-.417969s-.11263-.261719-.201172-.371094-.19987-.197917-.333984-.265625-.29362-.101562-.478516-.101562Z" fill="#fff"/><path id="readme-diagram-u-shape33" d="M18.296875,3.847656c0-.304687.044271-.58789.132813-.849609s.215494-.488932.380859-.681641.366536-.344401.603516-.455078.503906-.166015.800781-.166015c.299479,0,.568359.055338.80664.166015s.440105.26237.605469.455078.292318.419922.38086.681641.132812.544922.132812.849609v.085938c0,.304687-.044271.587239-.132812.847656s-.215495.486979-.38086.679688-.366536.34375-.603515.453125-.503907.164062-.800782.164062c-.299479,0-.568359-.054687-.80664-.164062s-.440104-.260417-.605469-.453125-.292318-.419271-.380859-.679688-.132813-.542969-.132813-.847656v-.085938Zm.722656.085938c0,.208333.02474.406901.074219.595703s.124349.354818.224609.498047.225912.25651.376954.339844.326822.125.527343.125c.197917,0,.371745-.041667.521485-.125s.274739-.196615.375-.339844.17513-.309245.224609-.498047.074219-.38737.074219-.595703v-.085938c0-.205729-.025391-.402995-.076172-.591797s-.126302-.354817-.226563-.498046-.22526-.257162-.375-.341797-.324869-.126953-.52539-.126953-.375.042317-.523438.126953-.272786.198567-.373047.341797-.17513.309244-.224609.498046-.074219.386068-.074219.591797v.085938Z" fill="#fff"/><path id="readme-diagram-u-shape34" d="M26.867188,3.933594c0,.302083-.036459.583984-.109375.845703s-.179688.488932-.320313.681641-.314453.34375-.521484.453125-.44336.164062-.708985.164062c-.257812,0-.485026-.041667-.68164-.125s-.365235-.203125-.50586-.359375v2.03125h-.722656v-5.851562h.660156l.035157.460937c.140625-.174479.310546-.307943.509765-.400391s.430339-.138671.69336-.138671c.270833,0,.510416.053385.71875.160156s.382812.255208.523437.445312.247396.417318.320313.681641.109375.554036.109375.869141v.082031Zm-.722657-.082031c0-.20573-.022786-.401693-.068359-.587891s-.115885-.350261-.210938-.492188-.215494-.254557-.361328-.33789-.320312-.125-.523437-.125c-.231771,0-.426432.054036-.583985.162109s-.283203.246745-.376953.416016v2.035156c.09375.166667.21875.302734.375.408203s.354167.158203.59375.158203c.200521,0,.373698-.042317.519532-.126953s.265625-.198568.359375-.341797.163411-.308593.208984-.496093.068359-.384115.068359-.589844v-.082031Z" fill="#fff"/><polygon id="readme-diagram-u-path11" points="28.214844,0 30.375,0 30.375,5.375 31.753906,5.375 31.753906,6 28.214844,6 28.214844,5.375 29.652344,5.375 29.652344,0.628906 28.214844,0.628906" fill="#fff"/><path id="readme-diagram-u-shape35" d="M34.769531,6.078125c-.296875,0-.569661-.050781-.818359-.152344s-.461589-.243489-.638672-.425781-.315104-.398437-.414062-.648437-.148438-.522136-.148438-.816407v-.164062c0-.341146.054688-.646485.164063-.916016s.254557-.497396.435546-.683594.386719-.328776.617188-.427734.466797-.148437.708984-.148437c.304688,0,.570964.052734.798828.158203s.417318.251302.56836.4375.263672.405599.33789.658203.111329.526041.111329.820312v.324219h-3.019532c.007813.192708.044922.373698.111328.542969s.157553.317057.273438.443359.254557.225912.416016.298828.339843.109375.535156.109375c.257812,0,.486979-.052083.6875-.15625s.367187-.242187.5-.414062l.441406.34375c-.070312.106771-.158203.208984-.263672.30664s-.227213.184245-.365234.259766-.294271.136068-.46875.181641-.364584.068359-.570313.068359Zm-.09375-3.789062c-.145833,0-.283854.026692-.414062.080078s-.247396.13151-.351563.234375-.192057.229166-.263672.378906-.121744.322266-.15039.517578h2.273437v-.054687c-.007812-.140625-.034505-.279948-.080078-.417969s-.11263-.261719-.201172-.371094-.199869-.197917-.333984-.265625-.29362-.101562-.478516-.101562Z" fill="#fff"/><polygon id="readme-diagram-u-path12" points="38.65625,6.488281 38.007813,6.488281 40.382813,0.3125 41.027344,0.3125" fill="#fff"/><path id="readme-diagram-u-shape36" d="M46.074219,3.824219c0,.361979-.041667.682942-.125.96289s-.203125.515625-.359375.707032-.347656.336588-.574219.435547-.485677.148437-.777344.148437c-.289062,0-.547526-.049479-.77539-.148437s-.421224-.244141-.580078-.435547-.280599-.427084-.365235-.707032-.126953-.600911-.126953-.96289v-1.332031c0-.36198.041667-.682943.125-.962891s.203776-.516276.361328-.708984.350261-.339193.578125-.439454.486328-.15039.775391-.15039c.291666,0,.551432.05013.779297.15039s.420573.246745.578125.439454.277994.429036.361328.708984.125.600911.125.962891v1.332031Zm-2.957031-.144531l2.214843-1.699219c-.041666-.377604-.151692-.664714-.330078-.861328s-.435547-.294922-.771484-.294922c-.380209,0-.660807.128255-.841797.384765s-.271484.63086-.271484,1.123047v1.347657Zm2.230468-1.007813L43.136719,4.363281c.044271.367188.157552.647136.339844.839844s.436197.289063.761718.289063c.382813,0,.663412-.130209.841797-.390625s.267578-.635417.267578-1.125v-1.304688Z" fill="#fff"/><polygon id="readme-diagram-u-path13" points="48.257813,6.488281 47.609375,6.488281 49.984375,0.3125 50.628906,0.3125" fill="#fff"/><path id="readme-diagram-u-shape37" d="M18.876953,16c-.028646-.054687-.051432-.123047-.068359-.205078s-.029297-.167318-.03711-.255859c-.072916.072916-.154296.141927-.24414.207031s-.188802.122396-.296875.171875-.223307.088541-.345703.117187-.252604.042969-.390625.042969c-.223959,0-.426433-.032552-.607422-.097656s-.334636-.152995-.460938-.263672-.223958-.242188-.292968-.394531-.103516-.317058-.103516-.494141c0-.231771.046224-.434896.138672-.609375s.223307-.319661.392578-.435547.373047-.202474.611328-.259765.504557-.085938.798828-.085938h.789063v-.332031c0-.127604-.023438-.242188-.070313-.34375s-.113281-.188151-.199219-.259766-.190755-.126953-.314453-.166015-.262369-.058594-.416015-.058594c-.143229,0-.271485.018229-.384766.054687s-.208984.084636-.287109.144532-.138672.130859-.181641.21289-.064453.167318-.064453.25586h-.726563c.002605-.153646.042318-.304688.119141-.453125s.1875-.281901.332031-.400391.320313-.214193.527344-.287109.442057-.109375.705078-.109375c.239584,0,.46224.029296.667969.08789s.383463.147136.533203.265625.267578.266276.353516.44336.128906.384114.128906.621093v1.964844c0,.140625.013021.289714.039062.447266s.0625.294922.109375.412109v.0625h-.753906Zm-1.277344-.550781c.140625,0,.272136-.018229.394532-.054688s.233724-.084635.333984-.144531.186849-.128255.259766-.205078.130208-.156901.171875-.240234v-.855469h-.671875c-.421875,0-.75.0625-.984375.1875s-.351563.321614-.351563.589844c0,.104166.017578.20052.052735.289062s.08789.164714.158203.228516.158854.113932.265625.15039.230468.054688.371093.054688Z" fill="#fff"/><path id="readme-diagram-u-shape38" d="M20.767578,13.851563c0-.315105.038412-.604818.115235-.869141s.188151-.491537.333984-.681641.322917-.338541.53125-.445312.44401-.160156.707031-.160156c.260417,0,.488932.046224.685547.138671s.363932.225912.501953.400391l.035156-.460937h.65625v4.136718c0,.278646-.043619.526042-.130859.742188s-.209635.399739-.367187.550781-.345704.265625-.564454.34375-.460937.117188-.726562.117188c-.109375,0-.234375-.01237-.375-.03711s-.283203-.065104-.427734-.121094-.283855-.130859-.417969-.224609-.249349-.209635-.345703-.347656l.375-.433594c.088541.106771.179687.197266.273437.271484s.188802.133464.285156.177735.192709.076172.289063.095703.192708.029297.289062.029297c.171875,0,.326823-.02474.464844-.074219s.25586-.121745.353516-.216797.172526-.21289.224609-.353515.078125-.302084.078125-.484375v-.363282c-.140625.161459-.30664.284506-.498047.369141s-.413411.126953-.666015.126953c-.257813,0-.490886-.054687-.699219-.164062s-.384766-.260417-.529297-.453125-.255859-.419922-.333984-.681641-.117188-.54362-.117188-.845703v-.082031Zm.722656.082031c0,.205729.021485.401041.064454.585937s.110677.347657.203125.488282.210286.251953.353515.333984.315104.123047.515625.123047c.125,0,.23763-.014974.337891-.044922s.190104-.072266.269531-.126953.150391-.119792.212891-.195313.117187-.158854.164062-.25v-1.9375c-.046875-.088541-.101562-.169271-.164062-.242187s-.134115-.136068-.214844-.189453-.170573-.095052-.269531-.125-.208334-.044922-.328125-.044922c-.203125,0-.376953.041666-.521485.125s-.263021.195963-.355468.33789-.160157.30599-.203125.492188-.064454.382161-.064454.587891v.082031Z" transform="translate(0 0.000001)" fill="#fff"/><path id="readme-diagram-u-shape39" d="M27.568359,16.078125c-.296875,0-.569661-.050781-.818359-.152344s-.461588-.243489-.638672-.425781-.315104-.398437-.414062-.648437-.148438-.522136-.148438-.816407v-.164062c0-.341146.054688-.646485.164063-.916016s.254557-.497396.435547-.683594.386718-.328776.617187-.427734.466797-.148437.708984-.148437c.304688,0,.570964.052734.798829.158203s.417317.251302.568359.4375.263672.405599.337891.658203.111328.526041.111328.820312v.324219h-3.019532c.007813.192708.044922.373698.111329.542969s.157552.317057.273437.443359.254557.225912.416016.298828.339843.109375.535156.109375c.257812,0,.486979-.052083.6875-.15625s.367187-.242187.5-.414062l.441406.34375c-.070312.106771-.158203.208984-.263672.30664s-.227213.184245-.365234.259766-.294271.136068-.46875.181641-.364583.068359-.570313.068359Zm-.09375-3.789062c-.145833,0-.283854.026692-.414062.080078s-.247396.13151-.351563.234375-.192057.229166-.263671.378906-.121745.322266-.150391.517578h2.273437v-.054687c-.007812-.140625-.034505-.279948-.080078-.417969s-.11263-.261719-.201172-.371094-.199869-.197917-.333984-.265625-.29362-.101562-.478516-.101562Z" fill="#fff"/><path id="readme-diagram-u-shape40" d="M31.794922,10.425781l-.082031,1.445313h-.507813l.003906-1.382813v-.488281h.585938v.425781Zm1.394531,0l-.082031,1.445313h-.503906l.003906-1.382813v-.488281h.585937l-.003906.425781Z" fill="#fff"/></g><g id="readme-diagram-u-label4" transform="translate(.181641 0)"><path id="readme-diagram-u-shape41" d="M1.412109,4.350586c.840821,0,1.40918-.606445,1.40918-1.576172c0-.972656-.568359-1.576172-1.40918-1.576172C0.568359,1.198242,0,1.801758,0,2.774414c0,.969727.568359,1.576172,1.412109,1.576172Zm0-.448242c-.539062,0-.893554-.410156-.893554-1.12793s.354492-1.12793.893554-1.12793.890625.410157.890625,1.12793-.351562,1.12793-.890625,1.12793Z" fill="#fff"/><path id="readme-diagram-u-shape42" d="M3.597656,4.350586c.146485,0,.249024-.102539.249024-.249023v-.319336h.011718c.199219.351562.547852.568359.993165.568359.779296,0,1.294921-.618164,1.294921-1.576172c0-.955078-.518554-1.576172-1.286132-1.576172-.430664,0-.785157.213867-.978516.5625h-.011719v-1.470703c0-.161133-.105469-.272461-.254883-.272461s-.254882.111328-.254882.272461v3.811524c0,.149414.09375.249023.237304.249023Zm1.154297-.448242c-.515625,0-.884765-.448242-.884765-1.12793c0-.676758.36914-1.12793.884765-1.12793.539063,0,.873047.436524.873047,1.12793c0,.697266-.333984,1.12793-.873047,1.12793Z" fill="#fff"/><path id="readme-diagram-s-path13" d="M7.716797,4.350586c.723633,0,1.212891-.366211,1.212891-.911133c0-.448242-.234375-.670898-.870118-.826172l-.454101-.111328c-.333985-.082031-.498047-.228515-.498047-.439453c0-.260742.254883-.445312.621094-.445312.310547,0,.506836.111328.638672.36621.055664.105469.125976.137696.225585.137696.123047,0,.199219-.079102.199219-.199219c0-.023437-.002929-.046875-.008789-.076172-.079101-.366211-.524414-.647461-1.02539-.647461-.688477,0-1.154297.360352-1.154297.890625c0,.427735.284179.706055.873047.852539l.46582.117188c.342773.084961.46875.202148.46875.421875c0,.284179-.263672.454101-.65332.454101s-.57129-.120117-.723633-.386718c-.058594-.105469-.131836-.152344-.222657-.152344-.131835,0-.231445.076172-.231445.210937c0,.038086.00586.076172.023438.120118.146484.380859.571289.624023,1.113281.624023Z" fill="#fff"/><path id="readme-diagram-u-shape43" d="M10.728516,4.350586c.55664,0,.984375-.234375,1.180664-.647461.023437-.055664.038086-.108398.038086-.149414c0-.134766-.090821-.222656-.225586-.222656-.079102,0-.137696.029297-.19043.102539-.237305.345703-.459961.474609-.823242.474609-.544922,0-.881836-.380859-.881836-.996094h1.904297c.175781,0,.28125-.111328.28125-.295898c0-.834961-.547852-1.417969-1.327149-1.417969-.84082,0-1.382812.626953-1.382812,1.587891c0,.984375.527344,1.564453,1.426758,1.564453ZM9.829102,2.513672c.032226-.524414.37207-.873047.846679-.873047.47168,0,.796875.345703.808594.873047h-1.655273Z" fill="#fff"/><path id="readme-diagram-s-path14" d="M12.779297,4.350586c.149414,0,.254883-.111328.254883-.272461v-1.672852c0-.389648.196289-.720703.65625-.720703.111328,0,.190429-.020507.243164-.064453.052734-.041015.079101-.099609.079101-.178711c0-.070312-.020507-.128906-.064453-.169922-.049804-.046875-.128906-.073242-.240234-.073242-.304688,0-.603516.234375-.691406.550781h-.011719v-.292968c0-.152344-.09961-.257813-.240235-.257813s-.240234.105469-.240234.257813v2.62207c0,.161133.105469.272461.254883.272461Z" fill="#fff"/><path id="readme-diagram-s-path15" d="M15.489258,4.350586c.164062,0,.272461-.082031.339844-.257813l.966796-2.52832c.017579-.043945.026368-.08789.026368-.131836c0-.140625-.09961-.234375-.251953-.234375-.111329,0-.1875.061524-.234375.19336l-.837891,2.364257h-.011719l-.834961-2.364257c-.046875-.131836-.123047-.19336-.237304-.19336-.152344,0-.254883.09375-.254883.234375c0,.043946.008789.087891.026367.131836l.969726,2.52832c.073243.184571.166993.257813.333985.257813Z" fill="#fff"/><path id="readme-diagram-u-shape44" d="M18.459961,4.350586c.556641,0,.984375-.234375,1.180664-.647461.023438-.055664.038086-.108398.038086-.149414c0-.134766-.09082-.222656-.225586-.222656-.079102,0-.137695.029297-.19043.102539-.237304.345703-.459961.474609-.823242.474609-.544922,0-.881836-.380859-.881836-.996094h1.904297c.175781,0,.28125-.111328.28125-.295898c0-.834961-.547851-1.417969-1.327148-1.417969-.840821,0-1.382813.626953-1.382813,1.587891c0,.984375.527344,1.564453,1.426758,1.564453Zm-.899414-1.836914c.032226-.524414.37207-.873047.84668-.873047.471679,0,.796875.345703.808593.873047h-1.655273Z" fill="#fff"/><path id="readme-diagram-s-path16" d="M20.510742,4.350586c.149414,0,.254883-.111328.254883-.272461v-1.672852c0-.389648.196289-.720703.65625-.720703.111328,0,.19043-.020507.243164-.064453.052734-.041015.079102-.099609.079102-.178711c0-.070312-.020508-.128906-.064453-.169922-.049805-.046875-.128907-.073242-.240235-.073242-.304687,0-.603515.234375-.691406.550781h-.011719v-.292968c0-.152344-.099609-.257813-.240234-.257813s-.240235.105469-.240235.257813v2.62207c0,.161133.105469.272461.254883.272461Z" fill="#fff"/><path id="readme-diagram-u-shape45" d="M23.689453,3.117188l-.196289.966796c-.005859.023438-.008789.052735-.008789.076172c0,.123047.079102.19043.196289.19043.120117,0,.19043-.064453.216797-.19043l.210937-1.042968h.981446l-.196289.966796c-.00586.023438-.008789.052735-.008789.076172c0,.123047.079101.19043.196289.19043.120117,0,.190429-.070313.216797-.199219l.210937-1.034179h.600586c.131836,0,.225586-.09668.225586-.234375c0-.108399-.073242-.1875-.178711-.1875h-.5625l.219727-1.066407h.571289c.131836,0,.225586-.096679.225586-.231445c0-.108398-.073243-.1875-.178711-.1875h-.530274l.19043-.925781c.005859-.023438.008789-.052735.008789-.076172c0-.123047-.079102-.19043-.196289-.19043-.120117,0-.19043.070313-.216797.199219l-.208008.993164h-.975586l.1875-.925781c.00586-.023438.008789-.052735.008789-.076172c0-.123047-.079101-.19043-.196289-.19043-.120117,0-.190429.070313-.216797.196289l-.208007.996094h-.580079c-.131835,0-.225585.09668-.225585.231445c0,.108399.073242.1875.17871.1875h.541993l-.213868,1.066407h-.550781c-.131836,0-.225586.096679-.225586.231445c0,.108398.073242.19043.178711.19043h.506836Zm.500977-.413086l.219726-1.081055h.987305l-.219727,1.081055h-.987304Z" fill="#fff"/><path id="readme-diagram-s-path17" d="M27.213867,4.297852h2.329102c.149414,0,.249023-.09375.249023-.234375s-.099609-.234375-.249023-.234375h-1.845703v-.011719l1.060547-1.089844c.723632-.741211.93457-1.089844.93457-1.552734C29.692383,0.492188,29.141602,0,28.379883,0c-.864258,0-1.330078.5625-1.391602.996094-.005859.035156-.008789.067383-.008789.105469c0,.137695.087891.234375.243164.234375.143555,0,.202149-.076172.237305-.184571.143555-.454101.462891-.691406.919922-.691406.454101,0,.785156.316406.785156.74707c0,.354492-.134766.580078-.703125,1.174805L27.108398,3.793945c-.125976.131836-.149414.178711-.149414.28711c0,.131836.09961.216797.254883.216797Z" fill="#fff"/></g></g></g><g id="readme-diagram-u-edges" transform="translate(43.378574 18.166265)"><path id="readme-diagram-u-ob1-edge" d="M107.121427,0h43c3.313709,0,6,2.686292,6,6v38.758637v0" fill="none" fill-rule="evenodd" stroke="#424242" stroke-width="2"/><path id="readme-diagram-u-ob3-edge" d="M39.621427,0L6,0C2.686292,0,0,2.686292,0,6v38.758637v0" fill="none" fill-rule="evenodd" stroke="#424242" stroke-width="2"/><line id="readme-diagram-u-ob2-edge" x1="156.121427" y1="68.674556" x2="156.121427" y2="109.813218" fill="none" fill-rule="evenodd" stroke="#424242" stroke-width="2"/></g></g><g id="readme-diagram-u-events" transform="translate(10 12.932188)"><g id="readme-diagram-u-event-6" transform="translate(206 111.06781)" opacity="0"><path id="readme-diagram-u-downstream-ob1-ob2" d="M1,-0.5v33.138l4,.000663-4.5,9-4.5-9L0,32.638L0,-0.5h1Z" fill="#50a44f"/><g id="readme-diagram-u-step-6-ob2" transform="translate(7 12)"><circle id="readme-diagram-u-backdrop5" r="7" transform="translate(7 7)" fill="#50a44f" fill-rule="evenodd"/><g id="readme-diagram-u-index" transform="translate(4.185059 3.792969)"><path id="readme-diagram-u-shape46" d="M2.939453,7.363281c1.572266,0,2.714844-1.040039,2.714844-2.5c0-1.323242-.932617-2.294922-2.294922-2.294922-.952148,0-1.645508.478516-1.918945,1.132813h-.029297v-.073242c.009765-1.503907.522461-2.460938,1.52832-2.460938.483399,0,.825195.180664,1.147461.585938.214844.249023.390625.375976.683594.375976.385742,0,.615234-.253906.615234-.581054c0-.131836-.034179-.258789-.102539-.395508C4.951172,0.493164,4.111328,0,2.944336,0C1.113281,0,0,1.40625,0,3.740234c0,.820313.146484,1.518555.415039,2.06543.517578,1.035156,1.40625,1.557617,2.524414,1.557617ZM2.919922,6.191406c-.722656,0-1.289063-.566406-1.289063-1.293945c0-.717773.556641-1.240234,1.303711-1.240234.742188,0,1.28418.527343,1.28418,1.269531-.004883.708008-.576172,1.264648-1.298828,1.264648Z" fill="#fff"/></g></g></g><g id="readme-diagram-u-event-7" transform="translate(223 158.06781)" opacity="0"><path id="readme-diagram-u-ob2-action" d="M15.224263,3.420584l9,4.5-9,4.5L15.224,8.42L-0.5,8.420584v-1L15.224,7.42l.000263-3.999416Z" fill="#3c7cff"/><g id="readme-diagram-u-obs2-out" transform="translate(24 1)"><rect id="readme-diagram-u-backdrop6" width="47" height="13" rx="3" ry="3" fill="#3c7cff" fill-rule="evenodd"/><g id="readme-diagram-u-text" transform="translate(15.849121 4.584961)"><path id="readme-diagram-s-path18" d="M0.427734,4.476563c.251954,0,.427735-.152344.427735-.445313v-1.417969c0-.407226.243164-.688476.626953-.688476s.577148.234375.577148.644531v1.461914c0,.292969.175782.445313.427735.445313.249023,0,.427734-.152344.427734-.445313v-1.640625c0-.735352-.392578-1.174805-1.089844-1.174805-.483398,0-.799804.213868-.966797.603516h-.017578v-.175781c0-.269532-.169922-.433594-.427734-.433594s-.413086.164062-.413086.430664v2.390625c0,.292969.178711.445313.427734.445313Z" fill="#fff"/><path id="readme-diagram-u-shape47" d="M4.898438,4.482422c.949218,0,1.555664-.606445,1.555664-1.640625c0-1.019531-.615235-1.634766-1.555664-1.634766s-1.555665.618164-1.555665,1.634766c0,1.03125.606446,1.640625,1.555665,1.640625Zm0-.65332c-.421875,0-.688477-.354493-.688477-.984375c0-.624024.272461-.984375.688477-.984375s.685546.360351.685546.984375c0,.629882-.266601.984375-.685546.984375Z" transform="translate(.000001 0)" fill="#fff"/><path id="readme-diagram-s-path19" d="M7.12207,3.612305c0,.553711.290039.83789.861328.83789h.029297c.360352,0,.606446-.128906.606446-.380859c0-.199219-.114258-.287109-.325196-.310547L8.238281,3.75293c-.18457-.014649-.260742-.108399-.260742-.331055v-1.50293h.301758c.202148,0,.328125-.125976.328125-.322265s-.125977-.322266-.328125-.322266h-.301758v-.348633c0-.27539-.161133-.445312-.427734-.445312s-.427735.169922-.427735.445312v.348633h-.164062c-.202149,0-.331055.123047-.331055.322266s.128906.322265.331055.322265h.164062v1.69336Z" fill="#fff"/><path id="readme-diagram-u-shape48" d="M9.46875,0.884766c.257813,0,.457031-.196289.457031-.442383C9.925781,0.193359,9.726563,0,9.46875,0s-.457031.193359-.457031.442383c0,.246094.199219.442383.457031.442383Zm0,3.591797c.263672,0,.427734-.166993.427734-.445313v-2.373047c0-.27832-.164062-.448242-.427734-.448242-.266602,0-.427734.169922-.427734.448242v2.373047c0,.27832.161132.445313.427734.445313Z" fill="#fff"/><path id="readme-diagram-s-path20" d="M11.121094,4.476563c.251953,0,.427734-.149415.427734-.445313v-2.112305h.339844c.178711,0,.313476-.114257.313476-.316406c0-.199219-.134765-.313476-.313476-.313476h-.360352v-.199219c0-.231446.105469-.336914.369141-.345703.064453-.00293.117187-.011719.164062-.023438.114258-.035156.172852-.105469.172852-.225586c0-.202148-.19043-.345703-.644531-.345703-.591797.005859-.896485.28125-.896485.902344v.237305h-.164062c-.178711,0-.313477.114257-.313477.313476c0,.202149.134766.316406.313477.316406h.164062v2.112305c0,.295898.172852.445313.427735.445313Z" fill="#fff"/><path id="readme-diagram-s-path21" d="M13.133789,5.578125c.688477,0,1.051758-.298828,1.344727-1.110352l.963867-2.61914c.029297-.082031.046875-.181641.046875-.251953c0-.225586-.169922-.386719-.416016-.386719-.219726,0-.342773.102539-.413086.339844l-.682617,2.179687h-.014648l-.682618-2.173828c-.070312-.249023-.1875-.345703-.413085-.345703-.251954,0-.442383.166992-.442383.398437c0,.070313.017578.164063.049804.251954L13.476563,4.50293l-.043946.111328c-.102539.219726-.263672.28418-.413086.28418-.058593,0-.09082-.00293-.149414-.00293-.193359,0-.313476.108398-.313476.28125c0,.257812.202148.401367.577148.401367Z" fill="#fff"/></g></g><g id="readme-diagram-u-step-7" transform="translate(74 0)"><circle id="readme-diagram-u-backdrop7" r="7" transform="translate(7 7)" fill="#3c7cff" fill-rule="evenodd"/><g id="readme-diagram-u-index2" transform="translate(4.392578 3.954102)"><path id="readme-diagram-s-path22" d="M1.586914,7.148438c.317383,0,.498047-.117188.65918-.429688L4.858398,1.674805c.19043-.371094.278321-.605469.278321-.869141C5.136719,0.302734,4.770508,0,4.257813,0h-3.647461C0.258789,0,0,0.229492,0,0.581055c0,.356445.258789.59082.610352.59082h3.037109v.029297L1.040039,6.083984c-.087891.161133-.126953.292969-.126953.463868c0,.341796.258789.600586.673828.600586Z" fill="#fff"/></g></g></g><g id="readme-diagram-u-event-62" transform="translate(223 91.06781)" opacity="0"><path id="readme-diagram-u-ob1-action" d="M15.224263,3.420584l9,4.5-9,4.5L15.224,8.42L-0.5,8.420584v-1L15.224,7.42l.000263-3.999416Z" fill="#3c7cff"/><g id="readme-diagram-u-obs1-out" transform="translate(24 1)"><rect id="readme-diagram-u-backdrop8" width="47" height="13" rx="3" ry="3" fill="#3c7cff" fill-rule="evenodd"/><g id="readme-diagram-u-text2" transform="translate(15.849121 4.584961)"><path id="readme-diagram-s-path23" d="M0.427734,4.476563c.251954,0,.427735-.152344.427735-.445313v-1.417969c0-.407226.243164-.688476.626953-.688476s.577148.234375.577148.644531v1.461914c0,.292969.175782.445313.427735.445313.249023,0,.427734-.152344.427734-.445313v-1.640625c0-.735352-.392578-1.174805-1.089844-1.174805-.483398,0-.799804.213868-.966797.603516h-.017578v-.175781c0-.269532-.169922-.433594-.427734-.433594s-.413086.164062-.413086.430664v2.390625c0,.292969.178711.445313.427734.445313Z" fill="#fff"/><path id="readme-diagram-u-shape49" d="M4.898438,4.482422c.949218,0,1.555664-.606445,1.555664-1.640625c0-1.019531-.615235-1.634766-1.555664-1.634766s-1.555665.618164-1.555665,1.634766c0,1.03125.606446,1.640625,1.555665,1.640625Zm0-.65332c-.421875,0-.688477-.354493-.688477-.984375c0-.624024.272461-.984375.688477-.984375s.685546.360351.685546.984375c0,.629882-.266601.984375-.685546.984375Z" transform="translate(.000001 0)" fill="#fff"/><path id="readme-diagram-s-path24" d="M7.12207,3.612305c0,.553711.290039.83789.861328.83789h.029297c.360352,0,.606446-.128906.606446-.380859c0-.199219-.114258-.287109-.325196-.310547L8.238281,3.75293c-.18457-.014649-.260742-.108399-.260742-.331055v-1.50293h.301758c.202148,0,.328125-.125976.328125-.322265s-.125977-.322266-.328125-.322266h-.301758v-.348633c0-.27539-.161133-.445312-.427734-.445312s-.427735.169922-.427735.445312v.348633h-.164062c-.202149,0-.331055.123047-.331055.322266s.128906.322265.331055.322265h.164062v1.69336Z" fill="#fff"/><path id="readme-diagram-u-shape50" d="M9.46875,0.884766c.257813,0,.457031-.196289.457031-.442383C9.925781,0.193359,9.726563,0,9.46875,0s-.457031.193359-.457031.442383c0,.246094.199219.442383.457031.442383Zm0,3.591797c.263672,0,.427734-.166993.427734-.445313v-2.373047c0-.27832-.164062-.448242-.427734-.448242-.266602,0-.427734.169922-.427734.448242v2.373047c0,.27832.161132.445313.427734.445313Z" fill="#fff"/><path id="readme-diagram-s-path25" d="M11.121094,4.476563c.251953,0,.427734-.149415.427734-.445313v-2.112305h.339844c.178711,0,.313476-.114257.313476-.316406c0-.199219-.134765-.313476-.313476-.313476h-.360352v-.199219c0-.231446.105469-.336914.369141-.345703.064453-.00293.117187-.011719.164062-.023438.114258-.035156.172852-.105469.172852-.225586c0-.202148-.19043-.345703-.644531-.345703-.591797.005859-.896485.28125-.896485.902344v.237305h-.164062c-.178711,0-.313477.114257-.313477.313476c0,.202149.134766.316406.313477.316406h.164062v2.112305c0,.295898.172852.445313.427735.445313Z" fill="#fff"/><path id="readme-diagram-s-path26" d="M13.133789,5.578125c.688477,0,1.051758-.298828,1.344727-1.110352l.963867-2.61914c.029297-.082031.046875-.181641.046875-.251953c0-.225586-.169922-.386719-.416016-.386719-.219726,0-.342773.102539-.413086.339844l-.682617,2.179687h-.014648l-.682618-2.173828c-.070312-.249023-.1875-.345703-.413085-.345703-.251954,0-.442383.166992-.442383.398437c0,.070313.017578.164063.049804.251954L13.476563,4.50293l-.043946.111328c-.102539.219726-.263672.28418-.413086.28418-.058593,0-.09082-.00293-.149414-.00293-.193359,0-.313476.108398-.313476.28125c0,.257812.202148.401367.577148.401367Z" fill="#fff"/></g></g><g id="readme-diagram-u-step-6-ob1" transform="translate(74 0)"><circle id="readme-diagram-u-backdrop9" r="7" transform="translate(7 7)" fill="#3c7cff" fill-rule="evenodd"/><g id="readme-diagram-u-index3" transform="translate(4.185059 3.792969)"><path id="readme-diagram-u-shape51" d="M2.939453,7.363281c1.572266,0,2.714844-1.040039,2.714844-2.5c0-1.323242-.932617-2.294922-2.294922-2.294922-.952148,0-1.645508.478516-1.918945,1.132813h-.029297v-.073242c.009765-1.503907.522461-2.460938,1.52832-2.460938.483399,0,.825195.180664,1.147461.585938.214844.249023.390625.375976.683594.375976.385742,0,.615234-.253906.615234-.581054c0-.131836-.034179-.258789-.102539-.395508C4.951172,0.493164,4.111328,0,2.944336,0C1.113281,0,0,1.40625,0,3.740234c0,.820313.146484,1.518555.415039,2.06543.517578,1.035156,1.40625,1.557617,2.524414,1.557617ZM2.919922,6.191406c-.722656,0-1.289063-.566406-1.289063-1.293945c0-.717773.556641-1.240234,1.303711-1.240234.742188,0,1.28418.527343,1.28418,1.269531-.004883.708008-.576172,1.264648-1.298828,1.264648Z" fill="#fff"/></g></g></g><g id="readme-diagram-u-event-63" transform="translate(0 111.06781)" opacity="0"><path id="readme-diagram-u-ob3-action" d="M24.5,-0.5v14.126l4,.000196-4.5,9-4.5-9l4-.000196v-14.126h1Z" fill="#3c7cff"/><g id="readme-diagram-u-obs3-out" transform="translate(0 22)"><rect id="readme-diagram-u-backdrop10" width="47" height="13" rx="3" ry="3" fill="#3c7cff" fill-rule="evenodd"/><g id="readme-diagram-u-text3" transform="translate(15.849121 4.584961)"><path id="readme-diagram-s-path27" d="M0.427734,4.476563c.251954,0,.427735-.152344.427735-.445313v-1.417969c0-.407226.243164-.688476.626953-.688476s.577148.234375.577148.644531v1.461914c0,.292969.175782.445313.427735.445313.249023,0,.427734-.152344.427734-.445313v-1.640625c0-.735352-.392578-1.174805-1.089844-1.174805-.483398,0-.799804.213868-.966797.603516h-.017578v-.175781c0-.269532-.169922-.433594-.427734-.433594s-.413086.164062-.413086.430664v2.390625c0,.292969.178711.445313.427734.445313Z" fill="#fff"/><path id="readme-diagram-u-shape52" d="M4.898438,4.482422c.949218,0,1.555664-.606445,1.555664-1.640625c0-1.019531-.615235-1.634766-1.555664-1.634766s-1.555665.618164-1.555665,1.634766c0,1.03125.606446,1.640625,1.555665,1.640625Zm0-.65332c-.421875,0-.688477-.354493-.688477-.984375c0-.624024.272461-.984375.688477-.984375s.685546.360351.685546.984375c0,.629882-.266601.984375-.685546.984375Z" transform="translate(.000001 0)" fill="#fff"/><path id="readme-diagram-s-path28" d="M7.12207,3.612305c0,.553711.290039.83789.861328.83789h.029297c.360352,0,.606446-.128906.606446-.380859c0-.199219-.114258-.287109-.325196-.310547L8.238281,3.75293c-.18457-.014649-.260742-.108399-.260742-.331055v-1.50293h.301758c.202148,0,.328125-.125976.328125-.322265s-.125977-.322266-.328125-.322266h-.301758v-.348633c0-.27539-.161133-.445312-.427734-.445312s-.427735.169922-.427735.445312v.348633h-.164062c-.202149,0-.331055.123047-.331055.322266s.128906.322265.331055.322265h.164062v1.69336Z" fill="#fff"/><path id="readme-diagram-u-shape53" d="M9.46875,0.884766c.257813,0,.457031-.196289.457031-.442383C9.925781,0.193359,9.726563,0,9.46875,0s-.457031.193359-.457031.442383c0,.246094.199219.442383.457031.442383Zm0,3.591797c.263672,0,.427734-.166993.427734-.445313v-2.373047c0-.27832-.164062-.448242-.427734-.448242-.266602,0-.427734.169922-.427734.448242v2.373047c0,.27832.161132.445313.427734.445313Z" fill="#fff"/><path id="readme-diagram-s-path29" d="M11.121094,4.476563c.251953,0,.427734-.149415.427734-.445313v-2.112305h.339844c.178711,0,.313476-.114257.313476-.316406c0-.199219-.134765-.313476-.313476-.313476h-.360352v-.199219c0-.231446.105469-.336914.369141-.345703.064453-.00293.117187-.011719.164062-.023438.114258-.035156.172852-.105469.172852-.225586c0-.202148-.19043-.345703-.644531-.345703-.591797.005859-.896485.28125-.896485.902344v.237305h-.164062c-.178711,0-.313477.114257-.313477.313476c0,.202149.134766.316406.313477.316406h.164062v2.112305c0,.295898.172852.445313.427735.445313Z" fill="#fff"/><path id="readme-diagram-s-path30" d="M13.133789,5.578125c.688477,0,1.051758-.298828,1.344727-1.110352l.963867-2.61914c.029297-.082031.046875-.181641.046875-.251953c0-.225586-.169922-.386719-.416016-.386719-.219726,0-.342773.102539-.413086.339844l-.682617,2.179687h-.014648l-.682618-2.173828c-.070312-.249023-.1875-.345703-.413085-.345703-.251954,0-.442383.166992-.442383.398437c0,.070313.017578.164063.049804.251954L13.476563,4.50293l-.043946.111328c-.102539.219726-.263672.28418-.413086.28418-.058593,0-.09082-.00293-.149414-.00293-.193359,0-.313476.108398-.313476.28125c0,.257812.202148.401367.577148.401367Z" fill="#fff"/></g></g><g id="readme-diagram-u-step-6-ob3" transform="translate(50 21)"><circle id="readme-diagram-u-backdrop11" r="7" transform="translate(7 7)" fill="#3c7cff" fill-rule="evenodd"/><g id="readme-diagram-u-index4" transform="translate(4.185059 3.792969)"><path id="readme-diagram-u-shape54" d="M2.939453,7.363281c1.572266,0,2.714844-1.040039,2.714844-2.5c0-1.323242-.932617-2.294922-2.294922-2.294922-.952148,0-1.645508.478516-1.918945,1.132813h-.029297v-.073242c.009765-1.503907.522461-2.460938,1.52832-2.460938.483399,0,.825195.180664,1.147461.585938.214844.249023.390625.375976.683594.375976.385742,0,.615234-.253906.615234-.581054c0-.131836-.034179-.258789-.102539-.395508C4.951172,0.493164,4.111328,0,2.944336,0C1.113281,0,0,1.40625,0,3.740234c0,.820313.146484,1.518555.415039,2.06543.517578,1.035156,1.40625,1.557617,2.524414,1.557617ZM2.919922,6.191406c-.722656,0-1.289063-.566406-1.289063-1.293945c0-.717773.556641-1.240234,1.303711-1.240234.742188,0,1.28418.527343,1.28418,1.269531-.004883.708008-.576172,1.264648-1.298828,1.264648Z" fill="#fff"/></g></g></g><g id="readme-diagram-u-event-5" transform="translate(140.5 37.579426)" opacity="0"><path id="readme-diagram-u-downstream-root-ob1" d="M59.922235,-0.5c3.589851,0,6.5,2.910149,6.5,6.5L66.422,41.072l4.000235.00047-4.5,9-4.5-9L65.422,41.072L65.422235,6c0-3.037566-2.462434-5.5-5.5-5.5L-0.5,0.5v-1h60.422235Z" fill="#50a44f"/><g id="readme-diagram-u-step-5-ob1" transform="translate(72.5 17.488388)"><circle id="readme-diagram-u-backdrop12" r="7" transform="translate(7 7)" fill="#50a44f" fill-rule="evenodd"/><g id="readme-diagram-u-index5" transform="translate(4.514648 3.954102)"><path id="readme-diagram-s-path31" d="M2.563477,7.202148c1.606445,0,2.724609-1.015625,2.724609-2.519531c0-1.342773-.957031-2.290039-2.304688-2.290039-.717773,0-1.293945.283203-1.582031.737305h-.029297l.166016-1.958008h2.783203c.371094,0,.605469-.229492.605469-.585937s-.239258-.585938-.605469-.585938h-3.09082c-.571289,0-.878906.239258-.927735.834961L0.097656,3.417969c-.004883.024414-.004883.039062-.004883.058594-.019531.395507.209961.732421.69336.732421.327148,0,.473633-.073242.761719-.341796.249023-.239258.600586-.419922,1.020507-.419922.766602,0,1.313477.527343,1.313477,1.269531c0,.761719-.551758,1.313476-1.318359,1.313476-.634766,0-1.049805-.307617-1.303711-.815429-.166016-.263672-.351563-.366211-.644532-.366211C0.234375,4.848633,0,5.073242,0,5.449219c0,.175781.043945.327148.117188.483398.351562.747071,1.328125,1.269531,2.446289,1.269531Z" fill="#fff"/></g></g></g><g id="readme-diagram-u-event-52" transform="translate(3 37.579426)" opacity="0"><path id="readme-diagram-u-downstream-root-ob3" d="M70.5,-0.5v1h-44C23.462434,0.5,21,2.962434,21,6v25.988l4,.000388-4.5,9-4.5-9L20,31.988L20,6c0-3.589851,2.910149-6.5,6.5-6.5h44Z" fill="#50a44f"/><g id="readme-diagram-u-step-5-ob3" transform="translate(0 17.488388)"><circle id="readme-diagram-u-backdrop13" r="7" transform="translate(7 7)" fill="#50a44f" fill-rule="evenodd"/><g id="readme-diagram-u-index6" transform="translate(4.514648 3.954102)"><path id="readme-diagram-s-path32" d="M2.563477,7.202148c1.606445,0,2.724609-1.015625,2.724609-2.519531c0-1.342773-.957031-2.290039-2.304688-2.290039-.717773,0-1.293945.283203-1.582031.737305h-.029297l.166016-1.958008h2.783203c.371094,0,.605469-.229492.605469-.585937s-.239258-.585938-.605469-.585938h-3.09082c-.571289,0-.878906.239258-.927735.834961L0.097656,3.417969c-.004883.024414-.004883.039062-.004883.058594-.019531.395507.209961.732421.69336.732421.327148,0,.473633-.073242.761719-.341796.249023-.239258.600586-.419922,1.020507-.419922.766602,0,1.313477.527343,1.313477,1.269531c0,.761719-.551758,1.313476-1.318359,1.313476-.634766,0-1.049805-.307617-1.303711-.815429-.166016-.263672-.351563-.366211-.644532-.366211C0.234375,4.848633,0,5.073242,0,5.449219c0,.175781.043945.327148.117188.483398.351562.747071,1.328125,1.269531,2.446289,1.269531Z" fill="#fff"/></g></g></g><g id="readme-diagram-u-event-53" transform="translate(66 54.067814)" opacity="0"><path id="readme-diagram-u-root-action" d="M41.5,-0.5v14.126l4,.000196-4.5,9-4.5-9l4-.000196v-14.126h1Z" fill="#3c7cff"/><g id="readme-diagram-u-root-out" transform="translate(17 22)"><rect id="readme-diagram-u-backdrop14" width="47" height="13" rx="3" ry="3" fill="#3c7cff" fill-rule="evenodd"/><g id="readme-diagram-u-text4" transform="translate(15.849121 4.584961)"><path id="readme-diagram-s-path33" d="M0.427734,4.476563c.251954,0,.427735-.152344.427735-.445313v-1.417969c0-.407226.243164-.688476.626953-.688476s.577148.234375.577148.644531v1.461914c0,.292969.175782.445313.427735.445313.249023,0,.427734-.152344.427734-.445313v-1.640625c0-.735352-.392578-1.174805-1.089844-1.174805-.483398,0-.799804.213868-.966797.603516h-.017578v-.175781c0-.269532-.169922-.433594-.427734-.433594s-.413086.164062-.413086.430664v2.390625c0,.292969.178711.445313.427734.445313Z" fill="#fff"/><path id="readme-diagram-u-shape55" d="M4.898438,4.482422c.949218,0,1.555664-.606445,1.555664-1.640625c0-1.019531-.615235-1.634766-1.555664-1.634766s-1.555665.618164-1.555665,1.634766c0,1.03125.606446,1.640625,1.555665,1.640625Zm0-.65332c-.421875,0-.688477-.354493-.688477-.984375c0-.624024.272461-.984375.688477-.984375s.685546.360351.685546.984375c0,.629882-.266601.984375-.685546.984375Z" transform="translate(.000001 0)" fill="#fff"/><path id="readme-diagram-s-path34" d="M7.12207,3.612305c0,.553711.290039.83789.861328.83789h.029297c.360352,0,.606446-.128906.606446-.380859c0-.199219-.114258-.287109-.325196-.310547L8.238281,3.75293c-.18457-.014649-.260742-.108399-.260742-.331055v-1.50293h.301758c.202148,0,.328125-.125976.328125-.322265s-.125977-.322266-.328125-.322266h-.301758v-.348633c0-.27539-.161133-.445312-.427734-.445312s-.427735.169922-.427735.445312v.348633h-.164062c-.202149,0-.331055.123047-.331055.322266s.128906.322265.331055.322265h.164062v1.69336Z" fill="#fff"/><path id="readme-diagram-u-shape56" d="M9.46875,0.884766c.257813,0,.457031-.196289.457031-.442383C9.925781,0.193359,9.726563,0,9.46875,0s-.457031.193359-.457031.442383c0,.246094.199219.442383.457031.442383Zm0,3.591797c.263672,0,.427734-.166993.427734-.445313v-2.373047c0-.27832-.164062-.448242-.427734-.448242-.266602,0-.427734.169922-.427734.448242v2.373047c0,.27832.161132.445313.427734.445313Z" fill="#fff"/><path id="readme-diagram-s-path35" d="M11.121094,4.476563c.251953,0,.427734-.149415.427734-.445313v-2.112305h.339844c.178711,0,.313476-.114257.313476-.316406c0-.199219-.134765-.313476-.313476-.313476h-.360352v-.199219c0-.231446.105469-.336914.369141-.345703.064453-.00293.117187-.011719.164062-.023438.114258-.035156.172852-.105469.172852-.225586c0-.202148-.19043-.345703-.644531-.345703-.591797.005859-.896485.28125-.896485.902344v.237305h-.164062c-.178711,0-.313477.114257-.313477.313476c0,.202149.134766.316406.313477.316406h.164062v2.112305c0,.295898.172852.445313.427735.445313Z" fill="#fff"/><path id="readme-diagram-s-path36" d="M13.133789,5.578125c.688477,0,1.051758-.298828,1.344727-1.110352l.963867-2.61914c.029297-.082031.046875-.181641.046875-.251953c0-.225586-.169922-.386719-.416016-.386719-.219726,0-.342773.102539-.413086.339844l-.682617,2.179687h-.014648l-.682618-2.173828c-.070312-.249023-.1875-.345703-.413085-.345703-.251954,0-.442383.166992-.442383.398437c0,.070313.017578.164063.049804.251954L13.476563,4.50293l-.043946.111328c-.102539.219726-.263672.28418-.413086.28418-.058593,0-.09082-.00293-.149414-.00293-.193359,0-.313476.108398-.313476.28125c0,.257812.202148.401367.577148.401367Z" fill="#fff"/></g></g><g id="readme-diagram-u-step-5-root" transform="translate(0 21)"><circle id="readme-diagram-u-backdrop15" r="7" transform="translate(7 7)" fill="#3c7cff" fill-rule="evenodd"/><g id="readme-diagram-u-index7" transform="translate(4.514648 3.954102)"><path id="readme-diagram-s-path37" d="M2.563477,7.202148c1.606445,0,2.724609-1.015625,2.724609-2.519531c0-1.342773-.957031-2.290039-2.304688-2.290039-.717773,0-1.293945.283203-1.582031.737305h-.029297l.166016-1.958008h2.783203c.371094,0,.605469-.229492.605469-.585937s-.239258-.585938-.605469-.585938h-3.09082c-.571289,0-.878906.239258-.927735.834961L0.097656,3.417969c-.004883.024414-.004883.039062-.004883.058594-.019531.395507.209961.732421.69336.732421.327148,0,.473633-.073242.761719-.341796.249023-.239258.600586-.419922,1.020507-.419922.766602,0,1.313477.527343,1.313477,1.269531c0,.761719-.551758,1.313476-1.318359,1.313476-.634766,0-1.049805-.307617-1.303711-.815429-.166016-.263672-.351563-.366211-.644532-.366211C0.234375,4.848633,0,5.073242,0,5.449219c0,.175781.043945.327148.117188.483398.351562.747071,1.328125,1.269531,2.446289,1.269531Z" fill="#fff"/></g></g></g><g id="readme-diagram-u-event-4" transform="translate(76 0)" opacity="0"><path id="readme-diagram-u-downstream-root" d="M19.922235,-0.5L19.922,21.488l4.000235.000364-4.5,9-4.5-9L18.922,21.488L18.922235,-0.5h1Z" fill="#50a44f"/><g id="readme-diagram-u-step-4" transform="translate(0 5.067812)"><circle id="readme-diagram-u-backdrop16" r="7" transform="translate(7 7)" fill="#50a44f" fill-rule="evenodd"/><g id="readme-diagram-u-index8" transform="translate(4.104492 3.84668)"><path id="readme-diagram-u-shape57" d="M4.213867,7.255859c.405274,0,.703125-.249023.703125-.717773v-.678711h.400391c.385742,0,.605469-.239258.605469-.585937s-.214844-.590821-.605469-.590821h-.400391v-3.618164C4.916992,0.405273,4.448242,0,3.701172,0c-.595703,0-.952149.244141-1.44043.991211-.766601,1.137695-1.469726,2.211914-1.953125,3.081055C0.087891,4.458008,0,4.731445,0,5.03418c0,.493164.356445.825195.888672.825195h2.626953v.678711c0,.46875.292969.717773.698242.717773ZM3.544922,4.72168h-2.255859v-.039063c.571289-1.064453,1.220703-2.055664,2.226562-3.505859h.029297v3.544922Z" fill="#fff"/></g></g></g><g id="readme-diagram-u-event-3" transform="translate(114.922234 0)" opacity="0"><path id="readme-diagram-u-upstream-root" d="M0.5,-0.5L5,8.5h-4v21.988364h-1L0,8.5h-4l4.5-9Z" fill="#e5641b"/><g id="readme-diagram-u-step-3" transform="translate(6.077765 12.067812)"><circle id="readme-diagram-u-backdrop17" r="7" transform="translate(7 7)" fill="#e56c1b" fill-rule="evenodd"/><g id="readme-diagram-u-index9" transform="translate(4.353516 3.797852)"><path id="readme-diagram-s-path38" d="M2.612305,7.358398c1.635742,0,2.74414-.849609,2.74414-2.128906c0-.971679-.678711-1.586914-1.728515-1.68457v-.029297c.830078-.170898,1.469726-.756836,1.469726-1.650391C5.097656,0.737305,4.091797,0,2.602539,0c-1.245117,0-2.045898.576172-2.358398,1.264648-.073243.166016-.107422.307618-.107422.473633c0,.356446.209961.595703.620117.595703.332031,0,.50293-.12207.664062-.454101.229493-.498047.590821-.74707,1.186524-.74707.712891,0,1.09375.375976,1.09375.942382c0,.576172-.478516.976563-1.21582.976563h-.288086c-.356446,0-.561524.214844-.561524.522461c0,.317383.205078.527344.561524.527344h.307617c.854492,0,1.357422.380859,1.352539,1.064453c0,.585937-.498047,1.005859-1.220703,1.005859-.732422,0-1.113281-.292969-1.362305-.786133C1.12793,5.117188,0.942383,5,0.649414,5C0.244141,5,0,5.239258,0,5.620117c0,.146485.03418.302735.112305.463867.332031.69336,1.157226,1.274414,2.5,1.274414Z" fill="#fff"/></g></g></g><g id="readme-diagram-u-event-2" transform="translate(140 48.067814)" opacity="0"><path id="readme-diagram-u-upstream-ob1-root" d="M8.5,4.5L-0.5,0l9-4.5v4h17.922235c3.589851,0,6.5,2.910149,6.5,6.5v24.5h-1v-24.5c0-3.037566-2.462434-5.5-5.5-5.5L8.5,0.5v4Z" fill="#e56c1b"/><g id="readme-diagram-u-step-2" transform="translate(9 7)"><circle id="readme-diagram-u-backdrop18" r="7" transform="translate(7 7)" fill="#e56c1b" fill-rule="evenodd"/><g id="readme-diagram-u-index10" transform="translate(4.473145 3.797852)"><path id="readme-diagram-s-path39" d="M0.693359,7.202148h3.901368c.380859,0,.610351-.239257.610351-.585937c0-.356445-.229492-.585938-.610351-.585938h-2.65625v-.029296L3.461914,4.536133C4.614258,3.447266,5.03418,2.910156,5.03418,2.050781C5.03418,0.839844,4.02832,0,2.53418,0c-1.333008,0-2.216797.727539-2.456055,1.508789-.03418.102539-.053711.205078-.053711.317383c0,.366211.234375.600586.629883.600586.317383,0,.488281-.136719.654297-.429688.253906-.566406.644531-.849609,1.210937-.849609.629883,0,1.079102.415039,1.079102.996094c0,.507812-.22461.849609-1.09375,1.68457L0.405273,5.834961C0.107422,6.108398,0,6.293945,0,6.572266c0,.371093.229492.629882.693359.629882Z" fill="#fff"/></g></g></g><g id="readme-diagram-u-event-1" transform="translate(149 111.06781)" opacity="0"><path id="readme-diagram-u-upstream-ob2-ob1" d="M23.422235,-0.5l4.5,9h-4.000235l.000235,24h-1L22.922,8.5h-3.999765l4.5-9Z" fill="#e56c1b"/><g id="readme-diagram-u-step-1" transform="translate(0 12)"><circle id="readme-diagram-u-backdrop19" r="7" transform="translate(7 7)" fill="#e56c1b" fill-rule="evenodd"/><g id="readme-diagram-u-index11" transform="translate(4.888184 3.84668)"><path id="readme-diagram-s-path40" d="M2.700195,7.255859c.434571,0,.727539-.292968.727539-.737304v-5.69336C3.427734,0.317383,3.115234,0,2.592773,0c-.302734,0-.537109.043945-.878906.27832l-1.396484.966797C0.087891,1.40625,0,1.572266,0,1.796875c0,.3125.219727.527344.517578.527344.151367,0,.253906-.03418.390625-.131836l1.030274-.717774h.029296v5.043946c0,.444336.297852.737304.732422.737304Z" fill="#fff"/></g></g></g><g id="readme-diagram-u-event-0" transform="translate(149 176.06781)" opacity="0"><path id="readme-diagram-u-input" d="M40.5,-0.5l4.5,9h-4.001L41,22.664993h-1L39.999,8.5L36,8.5l4.5-9Z" fill="#df2727"/><g id="readme-diagram-u-obs2-in" transform="translate(17 22)"><rect id="readme-diagram-u-backdrop20" width="47" height="13" rx="3" ry="3" fill="#df2727" fill-rule="evenodd"/><g id="readme-diagram-u-text5" transform="translate(15.923828 4.708008)"><path id="readme-diagram-u-shape58" d="M0.427734,5.411133c.251954,0,.427735-.152344.427735-.445313v-1.201172h.017578c.166992.354493.518555.577149.975586.577149.785156,0,1.271484-.609375,1.271484-1.620117c0-1.013672-.489258-1.620117-1.286133-1.620117-.454101,0-.802734.228515-.972656.597656h-.017578v-.169922c0-.290039-.175781-.442383-.421875-.442383s-.421875.152344-.421875.439453v3.439453c0,.292969.178711.445313.427734.445313ZM1.546875,3.65332c-.418945,0-.694336-.363281-.694336-.93164c0-.5625.275391-.934571.694336-.934571.427734,0,.697266.366211.697266.934571c0,.571289-.269532.93164-.697266.93164Z" fill="#fff"/><path id="readme-diagram-u-shape59" d="M4.488281,4.341797c.392578,0,.785157-.196289.960938-.530274h.017578v.161133c.017578.251953.178711.38086.410156.38086.243164,0,.416016-.146485.416016-.430664v-1.790039c0-.632813-.524414-1.048829-1.330078-1.048829-.650391,0-1.154297.231446-1.300782.606446-.029296.064453-.043945.125976-.043945.193359c0,.193359.149414.328125.357422.328125.137695,0,.246094-.052734.339844-.158203.190429-.246094.348633-.331055.609375-.331055.322265,0,.527343.169922.527343.462891v.208008l-.791015.046875c-.785156.046875-1.22461.377929-1.22461.949218c0,.56543.454102.952149,1.051758.952149Zm.28125-.618164c-.287109,0-.480468-.146485-.480468-.38086c0-.222656.18164-.36621.500976-.389648l.662109-.041016v.228516c0,.339844-.307617.583008-.682617.583008Z" fill="#fff"/><path id="readme-diagram-s-path41" d="M7.072266,3.489258c0,.553711.290039.83789.861328.83789h.029297c.360351,0,.606445-.128906.606445-.380859c0-.199219-.114258-.287109-.325195-.310547l-.055664-.005859c-.184571-.014649-.260743-.108399-.260743-.331055v-1.50293h.301758c.202149,0,.328125-.125976.328125-.322265s-.125976-.322266-.328125-.322266h-.301758v-.348633c0-.27539-.161132-.445312-.427734-.445312s-.427734.169922-.427734.445312v.348633h-.164063c-.202148,0-.331055.123047-.331055.322266s.128907.322265.331055.322265h.164063v1.69336Z" fill="#fff"/><path id="readme-diagram-s-path42" d="M10.365234,4.359375c.600586,0,1.136719-.298828,1.324219-.726562.038086-.084961.055664-.155274.055664-.222657c0-.210937-.161133-.342773-.360351-.342773-.181641,0-.275391.073242-.389649.251953-.131836.222656-.316406.369141-.615234.369141-.427735,0-.694336-.351563-.694336-.969727c0-.606445.266601-.963867.700195-.963867.272461,0,.462891.125976.618164.401367.087891.155273.19043.222656.360352.222656.202148,0,.366211-.123047.366211-.333984c0-.061524-.017578-.137695-.046875-.210938-.169922-.445312-.694336-.75-1.324219-.75-.943359,0-1.541016.632813-1.541016,1.637696c0,1.016601.600586,1.637695,1.546875,1.637695Z" fill="#fff"/><path id="readme-diagram-s-path43" d="M12.650391,4.353516c.251953,0,.427734-.152344.427734-.445313v-1.40918c0-.413085.237305-.697265.641602-.697265.389648,0,.588867.246094.588867.65039v1.456055c0,.292969.178711.445313.427734.445313.251953,0,.427735-.152344.427735-.445313v-1.637695c0-.726563-.398438-1.177735-1.095704-1.177735-.477539,0-.820312.222657-.987304.618165h-.017578v-1.271485c0-.27539-.155274-.439453-.418946-.439453s-.421875.164063-.421875.439453v3.46875c0,.292969.178711.445313.427735.445313Z" fill="#fff"/></g></g><g id="readme-diagram-u-step-0" transform="translate(0 21)"><circle id="readme-diagram-u-backdrop21" r="7" transform="translate(7 7)" fill="#df2727" fill-rule="evenodd"/><g id="readme-diagram-u-index12" transform="translate(4.126465 3.792969)"><path id="readme-diagram-u-shape60" d="M2.875977,7.363281c1.787109,0,2.871093-1.420898,2.871093-3.696289s-1.09375-3.666992-2.871093-3.666992C1.098633,0,0,1.396484,0,3.671875C0,5.952148,1.088867,7.363281,2.875977,7.363281Zm0-1.18164c-.869141,0-1.376954-.893555-1.376954-2.509766c0-1.601562.517579-2.490234,1.376954-2.490234.864257,0,1.37207.883789,1.37207,2.490234c0,1.616211-.50293,2.509766-1.37207,2.509766Z" fill="#fff"/></g></g></g></g><g id="readme-diagram-u-echo" transform="translate(93 0)" opacity="0"><rect id="readme-diagram-u-backdrop22" width="47" height="13" rx="3" ry="3" fill="#757575" fill-rule="evenodd"/><g id="readme-diagram-u-text6" transform="translate(16.89209 4.708008)"><path id="readme-diagram-u-shape61" d="M1.558594,4.359375c.606445,0,1.092773-.228516,1.300781-.615234.038086-.070313.058594-.140625.058594-.208008c0-.196289-.149414-.313477-.333985-.313477-.111328,0-.1875.032227-.27832.125977-.231445.272461-.436523.37793-.75.37793-.433594,0-.714844-.304688-.714844-.770508v-.038086h1.792969c.237305,0,.37207-.134766.37207-.372071c0-.852539-.597656-1.461914-1.488281-1.461914C0.588867,1.083984,0,1.725586,0,2.736328c0,1.016602.577148,1.623047,1.558594,1.623047Zm-.708985-1.96582c.029297-.401367.301758-.676758.676758-.676758s.638672.266601.65625.676758h-1.333008Z" fill="#fff"/><path id="readme-diagram-s-path44" d="M4.87793,4.359375c.600586,0,1.136718-.298828,1.324218-.726562.038086-.084961.055665-.155274.055665-.222657c0-.210937-.161133-.342773-.360352-.342773-.181641,0-.275391.073242-.389648.251953-.131836.222656-.316407.369141-.615235.369141-.427734,0-.694336-.351563-.694336-.969727c0-.606445.266602-.963867.700196-.963867.27246,0,.46289.125976.618164.401367.08789.155273.190429.222656.360351.222656.202149,0,.366211-.123047.366211-.333984c0-.061524-.017578-.137695-.046875-.210938-.169922-.445312-.694336-.75-1.324219-.75-.943359,0-1.541015.632813-1.541015,1.637696c0,1.016601.600586,1.637695,1.546875,1.637695Z" fill="#fff"/><path id="readme-diagram-s-path45" d="M7.163086,4.353516c.251953,0,.427734-.152344.427734-.445313v-1.40918c0-.413085.237305-.697265.641602-.697265.389648,0,.588867.246094.588867.65039v1.456055c0,.292969.178711.445313.427734.445313.251954,0,.427735-.152344.427735-.445313v-1.637695c0-.726563-.398438-1.177735-1.095703-1.177735-.477539,0-.820313.222657-.987305.618165h-.017578v-1.271485C7.576172,0.164063,7.420898,0,7.157227,0s-.421875.164063-.421875.439453v3.46875c0,.292969.178711.445313.427734.445313Z" fill="#fff"/><path id="readme-diagram-u-shape62" d="M11.663086,4.359375c.949219,0,1.555664-.606445,1.555664-1.640625c0-1.019531-.615234-1.634766-1.555664-1.634766s-1.555664.618164-1.555664,1.634766c0,1.03125.606445,1.640625,1.555664,1.640625Zm0-.65332c-.421875,0-.688477-.354492-.688477-.984375c0-.624024.272461-.984375.688477-.984375s.685547.360351.685547.984375c0,.629883-.266602.984375-.685547.984375Z" fill="#fff"/></g></g></g></svg>
