<?xml version="1.0" encoding="UTF-8"?>
<svg width="1199.00364px" height="263.83928px" viewBox="0 0 1199.00364 263.83928" version="1.1" xmlns="http://www.w3.org/2000/svg" xmlns:xlink="http://www.w3.org/1999/xlink">
    <title>logo-light</title>
    <g id="ändern" stroke="none" stroke-width="1" fill="none" fill-rule="evenodd">
        <g id="logo-light" transform="translate(-499.999467, -454.999848)" fill="#000000">
            <path d="M1287.72147,697.713848 L1292.38274,704.738514 C1279.84849,713.055249 1265.79525,717.917548 1251.13308,718.839128 L1287.72147,697.713848 Z M1279.11352,684.740319 L1281.07447,687.694848 L1229.69308,717.364205 C1224.30586,716.269401 1219.08417,714.641354 1214.0669,712.52953 L1244.46325,694.979286 C1244.97535,694.993072 1245.48866,695 1246.0031,695 C1257.69709,695 1268.98436,691.461228 1279.11352,684.740319 Z M1023.00747,717.003078 L1014.31247,717.002848 L1017.05203,715.423918 C1019.01189,716.023017 1020.99772,716.550277 1023.00747,717.003078 Z M562.861837,714.37754 L558.313467,717.001848 L534.316467,717.000848 L549.401184,708.292847 C553.711408,710.705666 558.207907,712.746122 562.861837,714.37754 Z M740.002467,709.098848 L740.003,717 L726.313467,717.001848 L740.002467,709.098848 Z M1002.98869,709.684849 L990.313467,717.001848 L966.315467,717.000848 L991.399088,702.52122 C995.095333,705.209986 998.965968,707.607314 1002.98869,709.684849 Z M677.193164,703.794089 L654.315467,717.000848 L630.316467,717.000848 L669.962084,694.111718 C672.0718,697.634913 674.490608,700.881565 677.193164,703.794089 Z M697.452661,717.001527 L678.315467,717.000848 L686.95457,712.014725 C690.302586,714.16716 693.821943,715.83374 697.452661,717.001527 Z M1122.291,696.231972 L1086.31547,717.000848 L1062.31547,717.000848 L1065.22163,715.324095 C1072.97401,712.919346 1080.41319,709.362952 1087.38274,704.738514 L1086.32247,703.140848 L1116.69137,685.607366 C1118.25945,689.383046 1120.13359,692.941851 1122.291,696.231972 Z M1133.37666,708.678047 C1135.62658,710.523501 1137.97664,712.127962 1140.4055,713.486826 L1134.31547,717.000848 L1110.31547,717.000848 L1129.99176,705.641775 C1131.07929,706.706349 1132.20807,707.719536 1133.37666,708.678047 Z M981.595804,694.323267 L942.316467,717 L928.002467,717 L928.002467,711.407848 L973.233233,685.296387 C975.860588,688.496697 978.653132,691.512039 981.595804,694.323267 Z M904.002467,642.125848 L904.002467,655.981848 L798.316467,716.999848 L774.317467,716.999848 L904.002467,642.125848 Z M904.002467,669.838848 L904.002467,683.694848 L846.316467,716.999848 L822.317467,716.999848 L904.002467,669.838848 Z M904.002467,697.551848 L904.002467,711.407848 L894.316467,716.999848 L870.317467,716.999848 L904.002467,697.551848 Z M538.22439,700.890181 L511.453528,716.343907 C507.171992,715.07635 503.639237,712.065543 501.677515,708.133737 L528.74384,692.507172 C531.743212,695.525966 534.909076,698.327524 538.22439,700.890181 Z M1385.00247,696.973848 L1385.00247,710.829848 L1377.78047,715 L1361.0031,715 L1361.00247,710.829848 L1385.00247,696.973848 Z M1535.00247,693.509848 L1535.00247,707.365848 L1521.78047,715 L1511.0031,715 L1511.00247,707.365848 L1535.00247,693.509848 Z M1699.00247,709.675848 L1699.0031,715 L1689.78047,714.999848 L1699.00247,709.675848 Z M1699.00247,681.962848 L1699.00247,695.818848 L1675.00247,709.674848 L1675.00247,695.818848 L1699.00247,681.962848 Z M904.002467,614.413848 L904.002467,628.269848 L764.002467,709.098848 L764.002467,695.241848 L904.002467,614.413848 Z M1226.40369,691.549254 L1201.45904,705.950096 C1197.78067,703.6342 1194.25257,701.040369 1190.89421,698.193376 L1213.51765,685.131975 C1217.60009,687.772748 1221.91329,689.931547 1226.40369,691.549254 Z M740.002467,681.385848 L740.002467,695.241848 L729.265467,701.440848 L722.866467,691.279848 L740.002467,681.385848 Z M664.76484,683.255899 L633.937467,701.053848 L627.290467,691.034848 L661.437309,671.321775 C662.232037,675.466174 663.348425,679.4606 664.76484,683.255899 Z M966.113388,675.549434 L928.002467,697.551848 L928.002467,683.695848 L960.131452,665.146979 C961.958401,668.750933 963.956546,672.223714 966.113388,675.549434 Z M1385.00247,669.260848 L1385.00247,683.116848 L1361.00247,696.973848 L1361.00247,683.117848 L1385.00247,669.260848 Z M520.652073,683.322582 L500.002467,695.242848 L500.001467,681.386848 L513.775738,673.435 C515.904792,676.885662 518.20131,680.187124 520.652073,683.322582 Z M660.002467,644.435848 L660.003102,656 C660.003102,656.76095 660.013345,657.5192 660.033721,658.2745 L597.209027,694.547898 C594.828942,694.848244 592.424743,695 590.003102,695 C585.083644,695 580.26865,694.366492 575.613018,693.160061 L660.002467,644.435848 Z M1111.00247,633.465848 L1111.00247,647.321848 L1030.20839,693.970912 C1024.95849,692.961617 1019.88738,691.228524 1015.06998,688.854295 L1111.00247,633.465848 Z M1535.00247,665.796848 L1535.00247,679.652848 L1511.00247,693.509848 L1511.00247,679.653848 L1535.00247,665.796848 Z M1112.97648,673.895485 L1079.67547,693.121848 L1074.11352,684.740319 C1068.32431,688.58158 1062.1568,691.383375 1055.75126,693.07912 L1111.15725,661.089731 C1111.42503,665.488082 1112.03888,669.773565 1112.97648,673.895485 Z M740.002467,653.673848 L740.002467,667.529848 L699.006712,691.200433 C698.531856,690.862596 698.061921,690.502955 697.59714,690.121727 L697.26056,689.84105 C694.802682,687.757482 692.608453,685.147765 690.746422,682.111592 L740.002467,653.673848 Z M1203.36873,677.133994 L1181.90291,689.528653 C1179.18921,686.56551 1176.62708,683.417039 1174.23063,680.10117 L1195.15078,668.022736 C1197.69152,671.318121 1200.44016,674.36549 1203.36873,677.133994 Z M660.002467,616.722848 L660.002467,630.578848 L561.445113,687.483588 C557.610744,685.366842 553.952733,682.837307 550.511191,679.939249 L660.002467,616.722848 Z M1699.00247,654.249848 L1699.00247,668.105848 L1675.00247,681.962848 L1675.00247,668.106848 L1699.00247,654.249848 Z M1110.99357,607.5653 L1111.0031,609 L1111.0031,619.608848 L1003.59063,681.624817 C1000.33565,679.086554 997.258328,676.226753 994.390222,673.080233 L1110.95504,605.781553 C1110.97278,606.374518 1110.98564,606.969119 1110.99357,607.5653 Z M903.684577,600.74076 L764.002467,681.385848 L764.002467,667.529848 L901.883796,587.924781 C902.73746,592.080038 903.344768,596.359809 903.684577,600.74076 Z M659.833561,602.965546 L541.702972,671.167862 C539.129176,668.154239 536.739614,664.901412 534.559227,661.436905 L658.287821,590.000821 C659.06149,594.208893 659.583847,598.538314 659.833561,602.965546 Z M740.002467,625.960848 L740.002467,639.816848 L685.988682,671.002867 C684.887479,667.059827 684.214943,662.779045 684.045535,658.268814 L740.002467,625.960848 Z M1188.50597,658.002544 L1167.73626,669.993731 C1165.77299,666.542951 1163.97235,662.956149 1162.34652,659.248804 L1183.27347,647.166476 C1184.80522,650.947285 1186.55661,654.567287 1188.50597,658.002544 Z M955.237466,654.116124 L928.002467,669.838848 L928.002467,655.982848 L951.427546,642.458919 C952.512522,646.446068 953.786445,650.336824 955.237466,654.116124 Z M1385.00247,641.548848 L1385.00247,655.404848 L1361.00247,669.260848 L1361.00247,655.404848 L1385.00247,641.548848 Z M508.022732,662.899906 L500.000467,667.530848 L500.000467,653.674848 L503.353933,651.740209 C504.733792,655.573975 506.294035,659.298929 508.022732,662.899906 Z M1535.00247,638.084848 L1535.00247,651.940848 L1511.00247,665.796848 L1511.00247,651.940848 L1535.00247,638.084848 Z M1109.73568,592.628847 L986.922392,663.534793 C984.728299,660.263497 982.725729,656.788264 980.937356,653.134118 L1107.01598,580.34188 C1108.1597,584.307962 1109.07318,588.411246 1109.73568,592.628847 Z M1699.00247,626.537848 L1699.00247,640.393848 L1675.00247,654.249848 L1675.00247,640.393848 L1699.00247,626.537848 Z M898.634874,575.943898 L764.002467,653.672848 L764.002467,639.816848 L894.015128,564.7563 C895.766263,568.322314 897.313224,572.059289 898.634874,575.943898 Z M655.272588,577.885023 L528.865872,650.867031 C527.210209,647.237206 525.762195,643.44248 524.542788,639.505983 L650.879446,566.566072 C652.557593,570.180497 654.02897,573.961203 655.272588,577.885023 Z M1179.40569,635.543233 L1158.03755,647.87977 C1156.77965,643.97735 1155.7059,639.971271 1154.82822,635.876676 L1176.94101,623.110388 C1177.51425,627.372825 1178.34274,631.524762 1179.40569,635.543233 Z M740.002467,598.247848 L740.002467,612.103848 L684.002467,644.435848 L684.002467,630.579848 L740.002467,598.247848 Z M948.739751,630.154029 L928.002467,642.125848 L928.002467,628.269848 L947.257674,617.153632 C947.533821,621.56113 948.032052,625.899942 948.739751,630.154029 Z M1102.90617,568.858103 L976.331111,641.93764 C975.02384,638.078956 973.938751,634.075059 973.096512,629.948759 L1097.43065,558.164157 C1099.45882,561.546264 1101.29132,565.118993 1102.90617,568.858103 Z M1385.00247,613.835848 L1385.00247,627.691848 L1361.00247,641.548848 L1361.00247,627.692848 L1385.00247,613.835848 Z M1535.00247,610.371848 L1535.00247,624.227848 L1511.00247,638.083848 L1511.00247,624.227848 L1535.00247,610.371848 Z M645.113145,556.036863 L521.600867,627.348147 C520.852493,623.124007 520.356965,618.779522 520.135667,614.338294 L637.889905,546.352061 C640.489862,549.347677 642.905986,552.58519 645.113145,556.036863 Z M1699.0031,609 L1699.00247,612.680848 L1675.00247,626.536848 L1675.00247,612.680848 L1698.62304,599.045013 C1698.87466,602.325961 1699.0031,605.646525 1699.0031,609 Z M888.014279,554.361699 L764.002467,625.960848 L764.002467,612.104848 L880.531033,544.826722 C883.216689,547.763556 885.719702,550.951371 888.014279,554.361699 Z M1176.0031,609 L1176.00847,609.790848 L1152.77981,623.202666 C1152.29539,618.805302 1152.03291,614.329864 1152.0055,609.793028 L1176.86889,595.436883 C1176.29934,599.849504 1176.0031,604.37898 1176.0031,609 Z M1090.52267,548.294808 L971.311085,617.122177 C971.107359,614.450525 971.003102,611.741371 971.003102,609 C971.003102,607.103397 971.053005,605.222215 971.151224,603.358204 L1081.99732,539.361427 C1085.02782,542.058354 1087.87927,545.04681 1090.52267,548.294808 Z M740.002467,570.534848 L740.002467,584.390848 L684.002467,616.722848 L684.002467,602.866848 L740.002467,570.534848 Z M947.124099,603.37316 L928.002467,614.412848 L928.003102,609 C928.003102,606.212868 927.914378,603.44847 927.739956,600.710655 L948.607176,588.659243 C947.839777,593.465237 947.339399,598.377529 947.124099,603.37316 Z M1385.40347,599.746625 L1361.00247,613.835848 L1361.00247,599.979848 L1387.90044,584.44982 C1386.70646,589.371927 1385.8618,594.484485 1385.40347,599.746625 Z M1340.46947,611.833848 L1340.56519,613.279128 L1337.97747,613.272848 L1340.46947,611.833848 Z M1339.58176,598.491608 L1314.06647,613.220848 L1290.15747,613.169848 L1337.88057,585.616705 C1338.65708,589.824325 1339.22837,594.121054 1339.58176,598.491608 Z M1283.75147,589.154848 L1307.66147,589.206848 L1266.24647,613.117848 L1242.33747,613.065848 L1283.75147,589.154848 Z M1235.93047,589.051848 L1259.84047,589.102848 L1218.42647,613.013848 L1212.05572,612.999972 L1212.07747,602.822848 L1235.93047,589.051848 Z M1535.79036,596.060132 L1511.00247,610.371848 L1511.00247,596.514848 L1538.98482,580.360643 C1537.53586,585.388918 1536.45696,590.637622 1535.79036,596.060132 Z M628.984883,537.635191 L520.352255,600.35507 C520.777899,595.116874 521.586124,590.024705 522.740638,585.118616 L617.920841,530.167685 C621.798797,532.251425 625.500433,534.755628 628.984883,537.635191 Z M1696.97096,586.141817 L1674.54353,599.09064 C1674.13738,594.74298 1673.4673,590.499083 1672.55432,586.382164 L1694.12767,573.927154 C1695.26835,577.904534 1696.22011,581.981173 1696.97096,586.141817 Z M871.309915,536.292947 L764.579126,597.914634 C765.138884,592.573722 766.097546,587.393967 767.415599,582.418973 L859.803434,529.080456 C863.829872,531.05311 867.679902,533.473315 871.309915,536.292947 Z M1180.18857,579.663225 L1152.70086,595.533539 C1153.24632,590.304839 1154.10537,585.184783 1155.25609,580.201243 L1187.68244,561.481465 C1184.63158,567.104184 1182.10333,573.198212 1180.18857,579.663225 Z M740.002467,542.822848 L740.002467,556.678848 L684.002467,589.009848 L684.002467,575.153848 L740.002467,542.822848 Z M1071.44369,531.59722 L973.021741,588.421069 C974.187568,582.599013 975.836386,577.018431 977.910444,571.743055 L1057.91132,525.552859 C1062.61947,526.999667 1067.14993,529.036164 1071.44369,531.59722 Z M952.23429,572.710426 L926.244717,587.715733 C925.543762,583.529182 924.639897,579.424915 923.545163,575.41824 L959.134731,554.867454 C956.40239,560.526873 954.086738,566.494243 952.23429,572.710426 Z M1393.85588,567.154891 L1361.00247,586.122848 L1361.00247,572.266848 L1408.4167,544.890735 C1402.62447,551.238818 1397.68435,558.755674 1393.85588,567.154891 Z M1334.99224,573.427866 L1313.44086,585.870521 C1312.51335,581.784279 1311.34714,577.827804 1309.96322,574.02294 L1330.9904,561.882745 C1332.50303,565.620415 1333.84101,569.473649 1334.99224,573.427866 Z M1546.23414,562.318182 L1511.00247,582.658848 L1511.00247,568.802848 L1568.92984,535.356456 C1559.82778,542.10857 1552.04242,551.338745 1546.23414,562.318182 Z M500,577.155248 L499.999467,570.536848 L502.343409,569.184357 C501.47834,571.795496 500.695999,574.453991 500,577.155248 Z M1690.16995,562.355717 L1669.13156,574.502017 C1667.75134,570.646456 1666.14752,566.942057 1664.34135,563.412292 L1685.12993,551.409048 C1686.97927,554.933036 1688.66329,558.587027 1690.16995,562.355717 Z M590.003102,523 L591.145376,523.011395 C595.363665,523.095594 599.501477,523.645252 603.52385,524.621785 L528.504302,567.935716 C532.146291,559.746618 536.839002,552.377256 542.346505,546.088002 L581.135945,523.692431 C584.044561,523.235384 587.004424,523 590.003102,523 Z M834.003102,523 C837.602272,523 841.145526,523.339096 844.611364,523.993561 L773.983503,564.771575 C778.519545,555.530054 784.426681,547.436193 791.337176,540.895817 L818.746553,525.071579 C823.310968,523.813764 828.033196,523.107757 832.860829,523.011395 L834.003102,523 Z M1108.11547,454.999848 L1030.80098,499.634273 C1008.02154,502.48624 987.826776,514.783565 972.97255,533.022417 L919.724193,563.768033 C918.263633,559.975642 916.624653,556.295771 914.819245,552.743668 L1084.11547,454.999848 L1108.11547,454.999848 Z M1267.10815,501.768218 L1160.4433,563.351568 C1163.13369,556.442871 1166.41734,549.91109 1170.22124,543.849017 L1247.8663,499.021026 C1254.4752,499.170321 1260.91085,500.112209 1267.10815,501.768218 Z M1325.90404,550.961965 L1305.11665,562.964003 C1303.24174,559.349454 1301.15436,555.922765 1298.87809,552.708506 L1319.72297,540.674659 C1321.94474,543.957045 1324.00941,547.391351 1325.90404,550.961965 Z M740.002467,515.109848 L740.002467,528.965848 L684.002467,561.297848 L684.002467,547.440848 L740.002467,515.109848 Z M1455.0031,499 C1457.75199,499 1460.48352,499.138055 1463.19186,499.411054 L1361.00247,558.409848 L1361.00247,544.553848 L1385.00247,530.697848 L1385.0031,535.52 L1385.36128,535.051163 C1387.87385,531.806944 1390.55073,528.73826 1393.37747,525.863495 L1436.07088,501.213731 C1441.6831,499.879766 1447.4857,499.127585 1453.43334,499.014863 L1455.0031,499 Z M510.204166,550.788859 L499.999467,556.679848 L499.999467,542.823848 L527.120045,527.165481 C520.577814,534.062172 514.876476,542.016364 510.204166,550.788859 Z M1605.0031,499 C1605.94513,499 1606.88364,499.016033 1607.81847,499.047873 L1511.00247,554.945848 L1511.00247,541.089848 L1535.00247,527.233848 L1535.0031,535.52 L1535.36128,535.051163 C1541.24625,527.452519 1548.03263,520.816847 1555.53461,515.380384 L1571.59907,506.104654 C1581.48984,501.72039 1592.20306,499.227704 1603.43334,499.014863 L1605.0031,499 Z M1678.99793,541.092731 L1658.1633,553.120778 C1655.80169,549.741755 1653.2319,546.591909 1650.48029,543.700306 L1671.71858,531.439682 C1674.30228,534.487681 1676.73327,537.711141 1678.99793,541.092731 Z M1038.21329,523.068067 L989.030339,551.464903 C1001.33665,534.737722 1018.87182,524.013075 1038.21329,523.068067 Z M1312.38839,531.051938 L1291.12398,543.328655 C1288.13719,540.234027 1284.94131,537.442811 1281.57028,534.990329 L1303.78361,522.1649 C1306.80598,524.922088 1309.67953,527.890814 1312.38839,531.051938 Z M1060.11547,454.999848 L908.825792,542.347346 C906.610901,538.940433 904.2293,535.688307 901.694462,532.608098 L1036.11547,454.999848 L1060.11547,454.999848 Z M660.002467,533.584848 L660.003102,535.521 L659.644921,535.051163 L658.966089,534.183981 L660.002467,533.584848 Z M1111.00247,522.614848 L1111.0031,535.521 L1110.64492,535.051163 C1108.42638,532.186593 1106.07973,529.458877 1103.61494,526.880674 L1111.00247,522.614848 Z M764.361283,535.051163 L764.003102,535.52 L764.002467,528.965848 L776.976922,521.475914 C772.422529,525.547526 768.200125,530.094466 764.361283,535.051163 Z M1663.17457,522.516264 L1641.01328,535.309714 C1637.26686,532.537104 1633.29793,530.18404 1629.15245,528.301239 L1653.15401,514.44306 C1656.65,516.88414 1659.99625,519.58292 1663.17457,522.516264 Z M820.115467,454.999848 L684.002467,533.584848 L684.002467,519.728848 L796.115467,454.999848 L820.115467,454.999848 Z M1494.81547,522.722848 L1487.94462,533.147982 C1486.13837,531.957338 1484.29557,530.867698 1482.42045,529.881068 L1494.81547,522.722848 Z M1385.0031,514.999848 L1385.00247,516.840848 L1361.00247,530.697848 L1361.00247,516.841848 L1364.19247,514.999848 L1385.0031,514.999848 Z M602.002467,456.219848 L602.002467,470.075848 L499.999467,528.967848 L499.999467,515.111848 L562.546467,478.999848 L578.003102,479 L578.002467,470.076848 L602.002467,456.219848 Z M1293.69133,514.13399 L1269.58249,528.052348 C1264.44617,525.780846 1259.04897,524.23005 1253.48005,523.492788 L1281.7249,507.185478 C1285.87249,509.174962 1289.86937,511.500865 1293.69133,514.13399 Z M1641.27906,507.44191 L1613.28672,523.603815 C1610.56605,523.204989 1607.80148,523 1605.0031,523 C1597.02183,523 1589.31552,524.667485 1582.11861,527.743734 L1626.79557,501.94828 C1631.79554,503.328696 1636.63445,505.173995 1641.27906,507.44191 Z M1532.19147,514.999848 L1511.00247,527.233848 L1511.0031,515 L1532.19147,514.999848 Z M772.115467,454.999848 L668.192467,514.999848 L660.003102,515 L660.002467,519.727848 L650.806738,525.037195 C647.781641,522.031498 644.589929,519.245429 641.248794,516.700848 L748.115467,454.999848 L772.115467,454.999848 Z M1494.43249,509.08778 L1467.82928,524.446914 C1463.63567,523.48838 1459.34746,523 1455.0031,523 C1451.51553,523 1448.08045,523.318394 1444.71744,523.933596 L1480.7112,503.153414 C1485.41706,504.710942 1490.00267,506.695374 1494.43249,509.08778 Z M1012.11547,454.999848 L893.31643,523.587077 C890.205438,520.622858 886.927194,517.886504 883.499434,515.400567 L988.115467,454.999848 L1012.11547,454.999848 Z M1111.00247,494.901848 L1111.00247,508.757848 L1094.36707,518.362557 C1090.90385,515.565159 1087.26961,513.032331 1083.48464,510.789885 L1111.00247,494.901848 Z M868.115467,454.999848 L764.002467,515.109848 L764.003102,515 L740.192467,514.999848 L844.115467,454.999848 L868.115467,454.999848 Z M724.115467,454.999848 L629.96941,509.354788 C625.612162,506.962766 621.067584,504.949905 616.365101,503.353618 L700.115467,454.999848 L724.115467,454.999848 Z M964.115467,454.999848 L871.887187,508.247983 C867.370165,505.924819 862.661996,504.004593 857.794176,502.527351 L940.115467,454.999848 L964.115467,454.999848 Z M1111.00247,467.189848 L1111.00247,481.045848 L1070.44032,504.465269 C1065.18808,502.449666 1059.72447,500.959169 1054.09241,500.048331 L1111.00247,467.189848 Z M916.115467,454.999848 L839.574759,499.188074 C838.248521,499.098246 836.914384,499.040288 835.572869,499.014863 L834.003102,499 L832.433336,499.014863 C824.426482,499.166613 816.682462,500.477268 809.311954,502.806114 L892.115467,454.999848 L916.115467,454.999848 Z M554.002467,456.219848 L554.002467,470.075848 L499.999467,501.254848 L499.999467,487.398848 L554.002467,456.219848 Z M676.115467,454.999848 L599.045122,499.497458 C596.072003,499.168387 593.055977,499 590.003102,499 C584.087431,499 578.310121,499.632263 572.715247,500.840752 L610.546467,478.999848 L626.003102,479 L626.002467,470.076848 L652.115467,454.999848 L676.115467,454.999848 Z M532.115467,454.999848 L499.999467,473.541848 L500,471 C500,462.163444 507.166546,454.999848 516.003102,454.999848 L532.115467,454.999848 Z M580.115467,454.999848 L578.002467,456.219848 L578.003,455 L580.115467,454.999848 Z M628.115467,454.999848 L626.002467,456.219848 L626.003,455 L628.115467,454.999848 Z"></path>
        </g>
    </g>
</svg>